<?xml version="1.0" encoding="utf-8"?>
<!-- Generator: Adobe Illustrator 24.3.0, SVG Export Plug-In . SVG Version: 6.00 Build 0)  -->
<!DOCTYPE svg PUBLIC "-//W3C//DTD SVG 1.1//EN" "http://www.w3.org/Graphics/SVG/1.1/DTD/svg11.dtd" [
	<!ENTITY ns_extend "http://ns.adobe.com/Extensibility/1.0/">
	<!ENTITY ns_ai "http://ns.adobe.com/AdobeIllustrator/10.0/">
	<!ENTITY ns_graphs "http://ns.adobe.com/Graphs/1.0/">
	<!ENTITY ns_vars "http://ns.adobe.com/Variables/1.0/">
	<!ENTITY ns_imrep "http://ns.adobe.com/ImageReplacement/1.0/">
	<!ENTITY ns_sfw "http://ns.adobe.com/SaveForWeb/1.0/">
	<!ENTITY ns_custom "http://ns.adobe.com/GenericCustomNamespace/1.0/">
	<!ENTITY ns_adobe_xpath "http://ns.adobe.com/XPath/1.0/">
]>
<svg version="1.1" id="ic-transaction-sent" xmlns:x="&ns_extend;" xmlns:i="&ns_ai;" xmlns:graph="&ns_graphs;"
	 xmlns="http://www.w3.org/2000/svg" xmlns:xlink="http://www.w3.org/1999/xlink" x="0px" y="0px" viewBox="0 0 24 24"
	 style="enable-background:new 0 0 24 24;" xml:space="preserve">
<style type="text/css">
	.st0{opacity:0.33;}
	.st1{opacity:0.57;fill:url(#SVGID_1_);}
	.st2{fill:url(#SVGID_2_);}
</style>
<metadata>
	<sfw  xmlns="&ns_sfw;">
		<slices></slices>
		<sliceSourceBounds  bottomLeftOrigin="true" height="23.331" width="16.552" x="3.724" y="0.334"></sliceSourceBounds>
	</sfw>
</metadata>
<g class="st0">
	<linearGradient id="SVGID_1_" gradientUnits="userSpaceOnUse" x1="11.9985" y1="22.2495" x2="11.9985" y2="5.8833">
		<stop  offset="0" style="stop-color:#fcdd1f"/>
		<stop  offset="1" style="stop-color:#fcdd1f"/>
	</linearGradient>
	<path class="st1" d="M18.652,12.711c-0.33-0.727-0.666-1.493-1.275-2.035c-0.088-0.078-0.172-0.14-0.243-0.166
		c-0.122-0.045-0.205,0.016-0.203,0.283c0.001,0.17,0.039,0.34,0.072,0.505c0.084,0.417,0.149,0.833,0.164,1.259
		c0.029,0.777-0.14,1.908-1.146,1.882c-0.807-0.021-1.546-0.687-1.638-1.476c-0.119-1.016,0.677-1.822,1.114-2.653
		c1.898-3.608,0.899-6.696-2.516-8.86c-0.572-0.362-0.392,0.223-0.237,0.5c0.178,0.321,0.35,0.65,0.395,1.02
		c0.09,0.734-0.23,1.438-0.662,2.012C11.714,5.994,10.856,6.93,10,7.863c-0.53,0.579-0.955,1.248-1.609,1.71
		c-0.673,0.474-0.862,0.006-0.706-0.65c0.085-0.357,0.23-0.687,0.408-1.006c0.155-0.278,0.334-0.862-0.237-0.5
		C6.13,8.51,5.061,10.565,4.832,12.534c-0.256,2.192-0.113,4.711,1.033,6.645c1.011,1.706,2.72,3,4.685,3.354
		c3.129,0.566,6.732-0.719,8.018-3.796C19.408,16.725,19.571,14.738,18.652,12.711z"/>
	<g>
		<linearGradient id="SVGID_2_" gradientUnits="userSpaceOnUse" x1="12" y1="23.1952" x2="12" y2="4.5122">
			<stop  offset="0" style="stop-color:#fcdd1f"/>
			<stop  offset="1" style="stop-color:#fcdd1f"/>
		</linearGradient>
		<path class="st2" d="M12.703,1.334c0.061,0,0.152,0.034,0.28,0.115c3.415,2.164,4.414,5.252,2.516,8.86
			c-0.437,0.831-1.234,1.637-1.114,2.653c0.092,0.79,0.831,1.455,1.638,1.476c0.011,0,0.022,0,0.034,0
			c0.977,0,1.141-1.114,1.112-1.882c-0.015-0.426-0.08-0.842-0.164-1.259c-0.033-0.166-0.071-0.336-0.072-0.505
			c-0.001-0.215,0.052-0.297,0.136-0.297c0.02,0,0.043,0.005,0.067,0.014c0.071,0.026,0.154,0.088,0.243,0.166
			c0.609,0.542,0.945,1.307,1.275,2.035c0.918,2.027,0.756,4.014-0.085,6.028c-1.089,2.606-3.839,3.926-6.556,3.926
			c-0.492,0-0.982-0.043-1.462-0.13c-1.965-0.355-3.674-1.648-4.685-3.354c-1.146-1.934-1.289-4.454-1.033-6.645
			c0.229-1.969,1.299-4.024,3.024-5.117c0.128-0.081,0.219-0.115,0.28-0.115c0.211,0,0.076,0.4-0.043,0.615
			C7.915,8.237,7.77,8.567,7.685,8.923c-0.112,0.47-0.047,0.843,0.247,0.843c0.116,0,0.269-0.059,0.461-0.194
			c0.654-0.461,1.079-1.131,1.609-1.71c0.856-0.933,1.714-1.869,2.477-2.881c0.432-0.573,0.752-1.277,0.662-2.012
			c-0.045-0.37-0.217-0.699-0.395-1.02C12.626,1.734,12.491,1.334,12.703,1.334 M12.703,0.334L12.703,0.334L12.703,0.334
			c-0.398,0-0.754,0.202-0.953,0.541c-0.334,0.569-0.066,1.223,0.124,1.562c0.132,0.237,0.253,0.468,0.276,0.653
			c0.058,0.475-0.222,0.963-0.468,1.289c-0.737,0.977-1.591,1.908-2.416,2.807c-0.013,0.013-0.025,0.026-0.037,0.04
			c-0.022-0.13-0.067-0.259-0.14-0.384c-0.199-0.338-0.555-0.54-0.952-0.54c-0.349,0-0.633,0.154-0.816,0.271
			c-1.866,1.182-3.2,3.422-3.482,5.846c-0.236,2.021-0.225,4.923,1.166,7.271c1.189,2.005,3.195,3.437,5.368,3.829
			c0.535,0.097,1.087,0.146,1.639,0.146c3.39,0,6.326-1.782,7.479-4.54c1.022-2.447,1.046-4.68,0.073-6.826l-0.027-0.059
			c-0.349-0.77-0.744-1.642-1.494-2.31c-0.2-0.177-0.378-0.289-0.562-0.357c-0.133-0.049-0.273-0.075-0.412-0.075
			c-0.04,0-0.079,0.002-0.118,0.006c1.27-3.492,0.063-6.683-3.432-8.897C13.335,0.488,13.051,0.334,12.703,0.334L12.703,0.334
			L12.703,0.334z M16.05,13.437c-0.33-0.023-0.639-0.302-0.672-0.59c-0.046-0.392,0.237-0.832,0.565-1.34
			c0.021-0.033,0.042-0.065,0.063-0.098c0.003,0.015,0.006,0.03,0.009,0.045c0.098,0.481,0.142,0.819,0.154,1.139
			C16.186,13.055,16.106,13.337,16.05,13.437L16.05,13.437z"/>
	</g>
</g>
</svg>
