<?xml version="1.0" encoding="utf-8"?>
<!-- Generator: Adobe Illustrator 25.1.0, SVG Export Plug-In . SVG Version: 6.00 Build 0)  -->
<svg version="1.1" id="Layer_1" xmlns="http://www.w3.org/2000/svg" xmlns:xlink="http://www.w3.org/1999/xlink" x="0px" y="0px"
	 viewBox="0 0 30 22" style="enable-background:new 0 0 30 22;" xml:space="preserve">
<style type="text/css">
	.st0{fill-rule:evenodd;clip-rule:evenodd;fill:#B088FF;}
	.st1{fill:none;}
	.st2{fill:#009CE1;}
</style>
<g id="Add-purple">
	<g id="ic-add-purple" transform="translate(5.000000, 3.000000)">
		<polygon id="Path_18951" class="st0" points="14,7 9,7 9,2 7,2 7,7 2,7 2,9 7,9 7,14 9,14 9,9 14,9 		"/>
		<polygon id="Rectangle_4603" class="st1" points="0,0 16,0 16,16 0,16 		"/>
	</g>
</g>
<path class="st2" d="M19,10h-5V5c0-0.6-0.4-1-1-1s-1,0.4-1,1v5H7c-0.6,0-1,0.4-1,1s0.4,1,1,1h5v5c0,0.6,0.4,1,1,1s1-0.4,1-1v-5h5
	c0.6,0,1-0.4,1-1S19.6,10,19,10z"/>
</svg>
