<?xml version="1.0" encoding="utf-8"?>
<!-- Generator: Adobe Illustrator 25.1.0, SVG Export Plug-In . SVG Version: 6.00 Build 0)  -->
<svg version="1.1" id="Layer_1" xmlns="http://www.w3.org/2000/svg" xmlns:xlink="http://www.w3.org/1999/xlink" x="0px" y="0px"
	 viewBox="0 0 26 26" style="enable-background:new 0 0 26 26;" xml:space="preserve">
<style type="text/css">
	.st0{fill:#FFFFFF;}
</style>
<g>
	<g>
		<path class="st0" d="M3.5,23.5C3.2,23.5,3,23.2,3,23V3.2c0-1.1,0.9-2,2-2h2.4C7.8,1.2,8,1.4,8,1.7V21c0,0.3-0.2,0.5-0.5,0.5
			C7.2,21.5,7,21.2,7,21V2.2H5c-0.6,0-1,0.5-1,1V23C4,23.2,3.8,23.5,3.5,23.5z"/>
	</g>
	<g>
		<path class="st0" d="M21.3,24.8H5c-1.1,0-2-0.9-2-2v-0.2c0-1.1,0.9-2,2-2h16.6v-18c0-0.2-0.1-0.3-0.3-0.3H7.5C7.2,2.2,7,2,7,1.7
			s0.2-0.5,0.5-0.5h13.8c0.7,0,1.3,0.6,1.3,1.3v21C22.6,24.2,22,24.8,21.3,24.8z M5,21.5c-0.6,0-1,0.5-1,1v0.2c0,0.6,0.5,1,1,1h16.3
			c0.2,0,0.3-0.1,0.3-0.3v-2H5z"/>
	</g>
	<g>
		<path class="st0" d="M14.8,14.3c-1.3,0-2.3-1.2-2.3-2.7c0-1.5,1-2.7,2.3-2.7c1.3,0,2.3,1.2,2.3,2.7C17.1,13.1,16.1,14.3,14.8,14.3
			z M14.8,10.1c-0.7,0-1.2,0.7-1.2,1.6c0,0.9,0.6,1.6,1.2,1.6s1.2-0.7,1.2-1.6C16.1,10.8,15.5,10.1,14.8,10.1z"/>
	</g>
	<g>
		<path class="st0" d="M14.8,17.4c-3.2,0-5.8-2.6-5.8-5.8C9,9.7,9.8,8,11.3,6.9c1.5-1.1,3.4-1.4,5.2-0.9c1.8,0.5,3.3,2,3.8,3.7
			c0.2,0.8,0.3,1.5,0.3,2.3c-0.1,1.2-1.1,2.1-2.3,2.1c-1.3,0-2.3-1-2.3-2.3V9.5c0-0.3,0.2-0.5,0.5-0.5c0.3,0,0.5,0.2,0.5,0.5v2.3
			c0,0.7,0.5,1.2,1.2,1.2c0.6,0,1.2-0.5,1.2-1.1c0.1-0.6,0-1.3-0.2-1.9c-0.4-1.4-1.6-2.6-3.1-3c-1.5-0.4-3.1-0.2-4.3,0.7
			C10.7,8.7,10,10,10,11.6c0,2.6,2.1,4.8,4.8,4.8c0.3,0,0.5,0.2,0.5,0.5S15.1,17.4,14.8,17.4z"/>
	</g>
</g>
</svg>
