<?xml version="1.0" encoding="utf-8"?>
<!-- Generator: Adobe Illustrator 24.1.1, SVG Export Plug-In . SVG Version: 6.00 Build 0)  -->
<!DOCTYPE svg PUBLIC "-//W3C//DTD SVG 1.1//EN" "http://www.w3.org/Graphics/SVG/1.1/DTD/svg11.dtd" [
	<!ENTITY ns_extend "http://ns.adobe.com/Extensibility/1.0/">
	<!ENTITY ns_ai "http://ns.adobe.com/AdobeIllustrator/10.0/">
	<!ENTITY ns_graphs "http://ns.adobe.com/Graphs/1.0/">
	<!ENTITY ns_vars "http://ns.adobe.com/Variables/1.0/">
	<!ENTITY ns_imrep "http://ns.adobe.com/ImageReplacement/1.0/">
	<!ENTITY ns_sfw "http://ns.adobe.com/SaveForWeb/1.0/">
	<!ENTITY ns_custom "http://ns.adobe.com/GenericCustomNamespace/1.0/">
	<!ENTITY ns_adobe_xpath "http://ns.adobe.com/XPath/1.0/">
]>
<svg version="1.1" id="Layer_1" xmlns:x="&ns_extend;" xmlns:i="&ns_ai;" xmlns:graph="&ns_graphs;"
	 xmlns="http://www.w3.org/2000/svg" xmlns:xlink="http://www.w3.org/1999/xlink" x="0px" y="0px" viewBox="0 0 24 24"
	 style="enable-background:new 0 0 24 24;" xml:space="preserve">
<style type="text/css">
	.st0{fill:none;}
	.st1{fill:#707070;}
</style>
<metadata>
	<sfw  xmlns="&ns_sfw;">
		<slices></slices>
		<sliceSourceBounds  bottomLeftOrigin="true" height="24" width="24" x="0" y="0"></sliceSourceBounds>
	</sfw>
</metadata>
<desc>Created with Sketch.</desc>
<g id="Artboard">
	<g id="ic-arrow-right">
		<g id="ic_chevron_right" transform="translate(12.000000, 12.000000) rotate(-90.000000) translate(-12.000000, -12.000000) ">
			<g id="Group_8822" transform="translate(4.000000, 7.000000)">
			</g>
			<polygon id="Rectangle_4407" class="st0" points="0,0 24,0 24,24 0,24 			"/>
			<path class="st1" d="M5,15.7c0.4,0.4,1,0.4,1.4,0l5.5-5.5l5.6,5.6c0.4,0.4,1,0.4,1.4,0c0.4-0.4,0.4-1,0-1.4l-6.2-6.2
				C12.5,8,12.2,7.9,12,7.9S11.5,8,11.3,8.2L5,14.3C4.6,14.8,4.6,15.3,5,15.7z"/>
		</g>
	</g>
</g>
</svg>
