<?xml version="1.0" encoding="utf-8"?>
<!-- Generator: Adobe Illustrator 24.0.3, SVG Export Plug-In . SVG Version: 6.00 Build 0)  -->
<svg version="1.1" id="Layer_1" xmlns="http://www.w3.org/2000/svg" xmlns:xlink="http://www.w3.org/1999/xlink" x="0px" y="0px"
	 viewBox="0 0 24 24" style="enable-background:new 0 0 24 24;" xml:space="preserve">
<style type="text/css">
	.st0{fill:none;}
	.st1{fill:#FFFFFF;}
</style>
<title>Artboard</title>
<desc>Created with Sketch.</desc>
<g id="Artboard">
	<g id="ic-arrow-right">
		<g id="ic_chevron_right" transform="translate(12.000000, 12.000000) rotate(-90.000000) translate(-12.000000, -12.000000) ">
			<g id="Group_8822" transform="translate(4.000000, 7.000000)">
			</g>
			<polygon id="Rectangle_4407" class="st0" points="0,0 24,0 24,24 0,24 			"/>
			<path class="st1" d="M5,15.8c0.4,0.4,1,0.4,1.4,0l5.5-5.5l4,4l1.6,1.6c0.4,0.4,1,0.4,1.4,0s0.4-1,0-1.4l-6.2-6.2
				C12.5,8,12.2,7.9,12,7.9c-0.2,0-0.5,0.1-0.7,0.3L5,14.4C4.6,14.8,4.6,15.4,5,15.8z"/>
		</g>
	</g>
</g>
</svg>
