<?xml version="1.0" encoding="utf-8"?>
<!-- Generator: Adobe Illustrator 25.1.0, SVG Export Plug-In . SVG Version: 6.00 Build 0)  -->
<svg version="1.1" id="Layer_1" xmlns="http://www.w3.org/2000/svg" xmlns:xlink="http://www.w3.org/1999/xlink" x="0px" y="0px"
	 viewBox="0 0 50 40" style="enable-background:new 0 0 50 40;" xml:space="preserve">
<style type="text/css">
	.st0{fill:#FFFFFF;}
</style>
<desc>Created with Sketch.</desc>
<g>
	<g>
		<path class="st0" d="M11.9,30.2c-0.3,0-0.5-0.2-0.5-0.5V10.5c0-1.1,0.9-2,2-2h2.4c0.3,0,0.5,0.2,0.5,0.5v18.7
			c0,0.3-0.2,0.5-0.5,0.5c-0.3,0-0.5-0.2-0.5-0.5V9.5h-1.9c-0.6,0-1,0.5-1,1v19.2C12.4,29.9,12.2,30.2,11.9,30.2z"/>
	</g>
	<g>
		<path class="st0" d="M29.2,31.5H13.4c-1.1,0-2-0.9-2-2v-0.2c0-1.1,0.9-2,2-2h16.1V9.8c0-0.2-0.1-0.3-0.3-0.3H15.8
			c-0.3,0-0.5-0.2-0.5-0.5c0-0.3,0.2-0.5,0.5-0.5h13.4c0.7,0,1.3,0.6,1.3,1.3v20.4C30.5,30.9,29.9,31.5,29.2,31.5z M13.4,28.2
			c-0.6,0-1,0.5-1,1v0.2c0,0.6,0.5,1,1,1h15.8c0.2,0,0.3-0.1,0.3-0.3v-2H13.4z"/>
	</g>
	<g>
		<path class="st0" d="M22.9,21.3c-1.2,0-2.2-1.2-2.2-2.6c0-1.4,1-2.6,2.2-2.6c1.2,0,2.2,1.2,2.2,2.6C25.1,20.1,24.1,21.3,22.9,21.3
			z M22.9,17.2c-0.7,0-1.2,0.7-1.2,1.5c0,0.9,0.5,1.5,1.2,1.5s1.2-0.7,1.2-1.5C24.1,17.9,23.6,17.2,22.9,17.2z"/>
	</g>
	<g>
		<path class="st0" d="M22.9,24.3c-3.1,0-5.7-2.5-5.7-5.7c0-1.8,0.8-3.4,2.3-4.5c1.4-1.1,3.3-1.4,5.1-0.9c1.7,0.5,3.2,1.9,3.7,3.6
			c0.2,0.7,0.3,1.5,0.3,2.2c-0.1,1.1-1.1,2-2.2,2c-1.2,0-2.2-1-2.2-2.2v-2.2c0-0.3,0.2-0.5,0.5-0.5s0.5,0.2,0.5,0.5v2.2
			c0,0.7,0.5,1.2,1.2,1.2c0.6,0,1.1-0.5,1.2-1.1c0-0.6,0-1.2-0.2-1.9c-0.4-1.4-1.6-2.5-3-2.9c-1.5-0.4-3-0.2-4.2,0.7
			c-1.2,0.9-1.8,2.2-1.8,3.7c0,2.5,2.1,4.6,4.6,4.6c0.3,0,0.5,0.2,0.5,0.5S23.2,24.3,22.9,24.3z"/>
	</g>
</g>
</svg>
