<?xml version="1.0" encoding="utf-8"?>
<!-- Generator: Adobe Illustrator 25.1.0, SVG Export Plug-In . SVG Version: 6.00 Build 0)  -->
<svg version="1.1" id="ic-add_label" xmlns="http://www.w3.org/2000/svg" xmlns:xlink="http://www.w3.org/1999/xlink" x="0px"
	 y="0px" viewBox="0 0 24 24" style="enable-background:new 0 0 24 24;" xml:space="preserve">
<style type="text/css">
	.st0{fill:none;}
	.st1{fill:#707070;}
	.st2{fill:#707070;stroke:#707071;stroke-miterlimit:10;}
</style>
<path id="Rectangle_4535" class="st0" d="M0,0h24v24H0V0z"/>
<g>
	<path class="st0" d="M5.7,18.2V3.4H4.2c-0.5,0-0.9,0.4-0.9,0.9v14.2c0.2-0.1,0.5-0.2,0.8-0.2H5.7z"/>
	<path class="st0" d="M14.9,13c-0.6,0-1.1-0.3-1.4-0.7c-0.3,0.5-0.9,0.8-1.5,0.8c-1,0-1.9-1-1.9-2.2c0-1.2,0.8-2.2,1.9-2.2
		c0.4,0,0.7,0.1,1,0.4c0-0.2,0.2-0.4,0.4-0.4c0.2,0,0.4,0.2,0.4,0.4V11v0.1c0,0.5,0.4,1,1,1c0.5,0,0.9-0.4,1-0.9c0-0.5,0-1-0.2-1.6
		c-0.4-1.2-1.3-2.1-2.5-2.5C12,6.9,10.7,7.1,9.8,7.9c-1,0.7-1.5,1.9-1.5,3.1c0,2.1,1.7,3.9,3.9,3.9c0.2,0,0.4,0.2,0.4,0.4
		c0,0.2-0.2,0.4-0.4,0.4c-2.6,0-4.7-2.1-4.7-4.7c0-1.5,0.7-2.9,1.9-3.8C10.4,6.3,12,6,13.5,6.4c1.5,0.4,2.6,1.6,3.1,3
		c0.2,0.6,0.3,1.3,0.2,1.9C16.7,12.3,15.9,13,14.9,13z"/>
	<path class="st0" d="M12.1,9.7c-0.6,0-1,0.6-1,1.3s0.5,1.3,1,1.3c0.6,0,1-0.6,1-1.3S12.6,9.7,12.1,9.7z"/>
	<path class="st1" d="M2.5,20.2c0,0.1,0,0.1,0,0.2c0-0.1,0-0.2,0-0.3V20.2z"/>
	<path class="st1" d="M3.3,18.4V4.2c0-0.5,0.4-0.9,0.9-0.9h1.6v14.8h0.8V3.4H6.1c-0.2,0-0.4-0.2-0.4-0.4c0-0.2,0.2-0.4,0.4-0.4h-2
		c-0.9,0-1.7,0.7-1.7,1.7v15.6C2.5,19.2,2.8,18.7,3.3,18.4z"/>
	<path class="st1" d="M6.5,18.6c0,0.2-0.2,0.4-0.4,0.4h7.4c-0.1-0.1-0.2-0.3-0.2-0.4c0-0.1,0.1-0.3,0.1-0.4h-7V18.6z"/>
	<path class="st1" d="M4.2,19h2c-0.2,0-0.4-0.2-0.4-0.4v-0.4H4.2c-0.3,0-0.6,0.1-0.8,0.2v1.4C3.3,19.4,3.7,19,4.2,19z"/>
	<path class="st1" d="M6.5,2.9v0.4h10.8c0.1,0,0.2,0.1,0.2,0.2v10.5C17.7,14,17.9,14,18,14c0.1,0,0.3,0.1,0.4,0.2V3.6
		c0-0.6-0.5-1-1-1H6.1C6.4,2.5,6.5,2.7,6.5,2.9z"/>
	<path class="st1" d="M16.2,20.9h-12c-0.5,0-0.8-0.4-0.8-0.8v0.2c0,0.2-0.2,0.4-0.4,0.4c-0.2,0-0.3-0.1-0.4-0.2
		c0.2,0.8,0.8,1.3,1.6,1.3h12.1c-0.1-0.1-0.1-0.2-0.1-0.3V20.9z"/>
	<path class="st1" d="M2.9,20.6c0.2,0,0.4-0.2,0.4-0.4V20v-0.2v-1.4c-0.5,0.3-0.8,0.8-0.8,1.4V20c0,0.1,0,0.2,0,0.3
		C2.6,20.5,2.7,20.6,2.9,20.6z"/>
	<path class="st1" d="M5.7,2.9c0,0.2,0.2,0.4,0.4,0.4h0.4V2.9c0-0.2-0.2-0.4-0.4-0.4C5.9,2.5,5.7,2.7,5.7,2.9z"/>
	<path class="st1" d="M6.1,19c0.2,0,0.4-0.2,0.4-0.4v-0.4H5.7v0.4C5.7,18.8,5.9,19,6.1,19z"/>
	<path class="st1" d="M13.1,11c0,0.7-0.5,1.3-1,1.3c-0.6,0-1-0.6-1-1.3s0.5-1.3,1-1.3C12.6,9.7,13.1,10.3,13.1,11V9.3
		c0,0,0-0.1,0-0.1c-0.3-0.2-0.6-0.4-1-0.4c-1,0-1.9,1-1.9,2.2c0,1.2,0.8,2.2,1.9,2.2c0.6,0,1.1-0.3,1.5-0.8
		c-0.3-0.3-0.4-0.7-0.4-1.2V11z"/>
	<path class="st1" d="M13.9,11V9.3c0-0.2-0.2-0.4-0.4-0.4c-0.2,0-0.4,0.2-0.4,0.4C13.6,9.6,13.9,10.3,13.9,11z"/>
	<path class="st1" d="M13.5,6.4C12,6,10.4,6.3,9.2,7.2C8,8.1,7.4,9.5,7.4,11c0,2.6,2.1,4.7,4.7,4.7c0.2,0,0.4-0.2,0.4-0.4
		c0-0.2-0.2-0.4-0.4-0.4c-2.1,0-3.9-1.7-3.9-3.9c0-1.2,0.6-2.3,1.5-3.1c1-0.7,2.2-1,3.5-0.6c1.2,0.3,2.1,1.3,2.5,2.5
		c0.2,0.5,0.2,1,0.2,1.6c0,0.5-0.5,0.9-1,0.9c-0.5,0-1-0.4-1-1V11c0,0.5-0.2,1-0.4,1.3c0.3,0.4,0.8,0.7,1.4,0.7
		c0.9,0,1.8-0.8,1.8-1.7c0.1-0.6,0-1.3-0.2-1.9C16.1,8,14.9,6.9,13.5,6.4z"/>
	<path class="st1" d="M13.1,9.2C13.1,9.3,13.1,9.3,13.1,9.2l0,1.8v0.1c0,0.5,0.2,0.9,0.4,1.2c0.3-0.4,0.4-0.8,0.4-1.3
		C13.9,10.3,13.6,9.6,13.1,9.2z"/>
</g>
<g>
	<path class="st2" d="M18,21.8c-0.2,0-0.4-0.2-0.4-0.4v-2c0-0.2-0.2-0.4-0.4-0.4h-2c-0.2,0-0.4-0.2-0.4-0.4c0-0.2,0.2-0.4,0.4-0.4h2
		c0.2,0,0.4-0.2,0.4-0.4v-2c0-0.2,0.2-0.4,0.4-0.4c0.2,0,0.4,0.2,0.4,0.4v2c0,0.2,0.2,0.4,0.4,0.4h2c0.3,0,0.4,0.2,0.4,0.4
		c0,0.2-0.2,0.4-0.4,0.4h-2c-0.2,0-0.4,0.2-0.4,0.4v2C18.4,21.6,18.2,21.8,18,21.8z"/>
</g>
</svg>
