<?xml version="1.0" encoding="utf-8"?>
<!-- Generator: Adobe Illustrator 25.1.0, SVG Export Plug-In . SVG Version: 6.00 Build 0)  -->
<svg version="1.1" id="Layer_1" xmlns="http://www.w3.org/2000/svg" xmlns:xlink="http://www.w3.org/1999/xlink" x="0px" y="0px"
	 viewBox="0 0 70 40" style="enable-background:new 0 0 70 40;" xml:space="preserve">
<style type="text/css">
	.st0{fill:#FFFFFF;}
</style>
<desc>Created with Sketch.</desc>
<g>
	<g>
		<path class="st0" d="M11.7,30.4c-0.3,0-0.5-0.3-0.5-0.5V10.1c0-1.1,0.9-2,2-2h2.4c0.4,0,0.6,0.2,0.6,0.5v19.3
			c0,0.3-0.2,0.5-0.5,0.5s-0.5-0.3-0.5-0.5V9.1h-2c-0.6,0-1,0.5-1,1v19.8C12.2,30.1,12,30.4,11.7,30.4z"/>
	</g>
	<g>
		<path class="st0" d="M29.5,31.7H13.2c-1.1,0-2-0.9-2-2v-0.2c0-1.1,0.9-2,2-2h16.6v-18c0-0.2-0.1-0.3-0.3-0.3H15.7
			c-0.3-0.1-0.5-0.3-0.5-0.6c0-0.3,0.2-0.5,0.5-0.5h13.8c0.7,0,1.3,0.6,1.3,1.3v21C30.8,31.1,30.2,31.7,29.5,31.7z M13.2,28.4
			c-0.6,0-1,0.5-1,1v0.2c0,0.6,0.5,1,1,1h16.3c0.2,0,0.3-0.1,0.3-0.3v-2L13.2,28.4L13.2,28.4z"/>
	</g>
	<g>
		<path class="st0" d="M23,21.2c-1.3,0-2.3-1.2-2.3-2.7s1-2.7,2.3-2.7c1.3,0,2.3,1.2,2.3,2.7S24.3,21.2,23,21.2z M23,17
			c-0.7,0-1.2,0.7-1.2,1.6s0.6,1.6,1.2,1.6c0.6,0,1.2-0.7,1.2-1.6C24.3,17.7,23.7,17,23,17z"/>
	</g>
	<g>
		<path class="st0" d="M23,24.3c-3.2,0-5.8-2.6-5.8-5.8c0-1.9,0.8-3.6,2.3-4.7s3.4-1.4,5.2-0.9s3.3,2,3.8,3.7
			c0.2,0.8,0.3,1.5,0.3,2.3c-0.1,1.2-1.1,2.1-2.3,2.1c-1.3,0-2.3-1-2.3-2.3v-2.3c0-0.3,0.2-0.5,0.5-0.5c0.3,0,0.5,0.2,0.5,0.5v2.3
			c0,0.7,0.5,1.2,1.2,1.2c0.6,0,1.2-0.5,1.2-1.1c0.1-0.6,0-1.3-0.2-1.9c-0.4-1.4-1.6-2.6-3.1-3c-1.5-0.4-3.1-0.2-4.3,0.7
			c-1.1,1-1.8,2.3-1.8,3.9c0,2.6,2.1,4.8,4.8,4.8c0.3,0,0.5,0.2,0.5,0.5S23.3,24.3,23,24.3z"/>
	</g>
</g>
</svg>
