<?xml version="1.0" encoding="utf-8"?>
<!-- Generator: Adobe Illustrator 25.1.0, SVG Export Plug-In . SVG Version: 6.00 Build 0)  -->
<svg version="1.1" id="Layer_1" xmlns="http://www.w3.org/2000/svg" xmlns:xlink="http://www.w3.org/1999/xlink" x="0px" y="0px"
	 viewBox="0 0 30 22" style="enable-background:new 0 0 30 22;" xml:space="preserve">
<style type="text/css">
	.st0{fill:#009CE1;}
	.st1{fill:none;}
</style>
<desc>Created with Sketch.</desc>
<g id="Add-purple">
	<g id="ic-add-purple" transform="translate(5.000000, 3.000000)">
		<path class="st0" d="M14,7H9V2c0-0.6-0.4-1-1-1S7,1.4,7,2v5H2C1.4,7,1,7.4,1,8s0.4,1,1,1h5v5c0,0.6,0.4,1,1,1s1-0.4,1-1V9h5
			c0.6,0,1-0.4,1-1S14.6,7,14,7z"/>
		<polygon id="Rectangle_4603" class="st1" points="0,0 16,0 16,16 0,16 		"/>
	</g>
</g>
</svg>
