<?xml version="1.0" encoding="utf-8"?>
<!-- Generator: Adobe Illustrator 25.1.0, SVG Export Plug-In . SVG Version: 6.00 Build 0)  -->
<svg version="1.1" id="Layer_1" xmlns="http://www.w3.org/2000/svg" xmlns:xlink="http://www.w3.org/1999/xlink" x="0px" y="0px"
	 viewBox="0 0 24 24" style="enable-background:new 0 0 24 24;" xml:space="preserve">
<style type="text/css">
	.st0{fill:#FFFFFF;}
</style>
<desc>Created with Sketch.</desc>
<g>
	<path class="st0" d="M12.6,17.2h-2.1c-0.3,0-0.6,0.3-0.6,0.6v2.4c0,0.3,0.3,0.6,0.6,0.6h2.1c0.3,0,0.6-0.2,0.6-0.6v-2.4
		C13.2,17.4,12.9,17.2,12.6,17.2z"/>
	<path class="st0" d="M17.4,6.3c-0.3-0.7-0.7-1.2-1.2-1.7c-0.6-0.4-1.1-0.8-1.8-1S13,3.2,12.2,3.2c-1.3,0-2.5,0.2-3.4,0.8
		C7.9,4.5,7,5.2,6.3,6C6.2,6.2,6.2,6.6,6.4,6.7l1.2,1.2C7.7,8,7.8,8,7.9,8C8.1,8,8.2,8,8.3,7.9c0.6-0.7,1.2-1.2,1.8-1.5
		c0.6-0.3,1.3-0.5,2-0.5c0.4,0,0.9,0.1,1.2,0.2c0.3,0.2,0.7,0.3,0.9,0.6c0.2,0.2,0.4,0.5,0.6,0.8c0.1,0.3,0.2,0.7,0.2,1
		c0,0.8-0.3,1.4-0.9,1.9c-0.7,0.5-1.8,0.8-3.1,0.8c-0.2,0-0.3,0.1-0.4,0.2l-0.1,0.1c-0.1,0.1-0.2,0.3-0.2,0.4l0.3,3.7
		c0,0.3,0.2,0.5,0.5,0.5h1.2c0.3,0,0.5-0.2,0.7-0.6l0.2-2.1c0.6-0.1,1-0.2,1.5-0.4c0.6-0.2,1.2-0.6,1.7-1c0.5-0.4,0.9-0.9,1.2-1.5
		c0.3-0.7,0.4-1.4,0.4-2.1C17.8,7.6,17.7,6.9,17.4,6.3z"/>
</g>
</svg>
