<?xml version="1.0" encoding="utf-8"?>
<!-- Generator: Adobe Illustrator 24.0.2, SVG Export Plug-In . SVG Version: 6.00 Build 0)  -->
<svg version="1.1" id="ic_close" xmlns="http://www.w3.org/2000/svg" xmlns:xlink="http://www.w3.org/1999/xlink" x="0px" y="0px"
	 viewBox="0 0 20 20" style="enable-background:new 0 0 20 20;" xml:space="preserve">
<style type="text/css">
	.st0{fill:#707070;}
	.st1{fill:none;}
</style>
<path class="st0" d="M11.4,10L17,4.4c0.4-0.4,0.4-1,0-1.4c-0.4-0.4-1-0.4-1.4,0L10,8.6L4.4,3C4,2.6,3.4,2.6,3,3C2.6,3.4,2.6,4,3,4.4
	L8.6,10L3,15.6c-0.4,0.4-0.4,1,0,1.4c0.4,0.4,1,0.4,1.4,0l5.6-5.6l5.6,5.6c0.4,0.4,1,0.4,1.4,0c0.4-0.4,0.4-1,0-1.4L11.4,10z"/>
<path id="Rectangle_4530" class="st1" d="M0,0h20v20H0V0z"/>
</svg>
