<?xml version="1.0" encoding="utf-8"?>
<!-- Generator: Adobe Illustrator 24.1.1, SVG Export Plug-In . SVG Version: 6.00 Build 0)  -->
<!DOCTYPE svg PUBLIC "-//W3C//DTD SVG 1.1//EN" "http://www.w3.org/Graphics/SVG/1.1/DTD/svg11.dtd" [
	<!ENTITY ns_extend "http://ns.adobe.com/Extensibility/1.0/">
	<!ENTITY ns_ai "http://ns.adobe.com/AdobeIllustrator/10.0/">
	<!ENTITY ns_graphs "http://ns.adobe.com/Graphs/1.0/">
	<!ENTITY ns_vars "http://ns.adobe.com/Variables/1.0/">
	<!ENTITY ns_imrep "http://ns.adobe.com/ImageReplacement/1.0/">
	<!ENTITY ns_sfw "http://ns.adobe.com/SaveForWeb/1.0/">
	<!ENTITY ns_custom "http://ns.adobe.com/GenericCustomNamespace/1.0/">
	<!ENTITY ns_adobe_xpath "http://ns.adobe.com/XPath/1.0/">
]>
<svg version="1.1" id="Layer_1" xmlns:x="&ns_extend;" xmlns:i="&ns_ai;" xmlns:graph="&ns_graphs;"
	 xmlns="http://www.w3.org/2000/svg" xmlns:xlink="http://www.w3.org/1999/xlink" x="0px" y="0px" viewBox="0 0 30 22"
	 style="enable-background:new 0 0 30 22;" xml:space="preserve">
<style type="text/css">
	.st0{fill:#00D3D5;}
</style>
<metadata>
	<sfw  xmlns="&ns_sfw;">
		<slices></slices>
		<sliceSourceBounds  bottomLeftOrigin="true" height="10.4" width="10.4" x="7.8" y="5.8"></sliceSourceBounds>
	</sfw>
</metadata>
<path class="st0" d="M17.9,14.5L14.4,11l3.5-3.5c0.4-0.4,0.4-1,0-1.4c-0.4-0.4-1-0.4-1.4,0L13,9.6L9.5,6.1
	C9.17,5.77,8.7,5.73,8.33,5.95C8.25,5.99,8.17,6.03,8.1,6.1c-0.4,0.4-0.4,1,0,1.4l3.5,3.5c0,0-3.48,3.48-3.5,3.5
	c-0.16,0.16-0.27,0.41-0.29,0.63C7.79,15.42,7.9,15.7,8.1,15.9c0.4,0.4,1,0.4,1.4,0l3.5-3.5c0,0,3.1,3.1,3.1,3.1l0.4,0.4
	c0.4,0.4,1,0.4,1.4,0S18.3,14.9,17.9,14.5z"/>
</svg>
