<?xml version="1.0" encoding="utf-8"?>
<!-- Generator: Adobe Illustrator 24.0.2, SVG Export Plug-In . SVG Version: 6.00 Build 0)  -->
<svg version="1.1" id="ic-close-white_1_" xmlns="http://www.w3.org/2000/svg" xmlns:xlink="http://www.w3.org/1999/xlink" x="0px"
	 y="0px" viewBox="0 0 18 17" style="enable-background:new 0 0 18 17;" xml:space="preserve">
<style type="text/css">
	.st0{fill:#FFFFFF;}
</style>
<path class="st0" d="M10.3,8.5L17,1.7c0.3-0.3,0.3-0.9,0-1.2s-0.9-0.3-1.2,0L9,7.3L2.2,0.5C1.8,0.2,1.3,0.2,1,0.5
	C0.6,0.9,0.6,1.4,1,1.7l6.8,6.8L1,15.3c-0.3,0.3-0.3,0.9,0,1.2c0.3,0.3,0.9,0.3,1.2,0L9,9.7l6.8,6.8c0.3,0.3,0.9,0.3,1.2,0
	c0.3-0.3,0.3-0.9,0-1.2L10.3,8.5z"/>
</svg>
