<?xml version="1.0" encoding="utf-8"?>
<!-- Generator: Adobe Illustrator 25.1.0, SVG Export Plug-In . SVG Version: 6.00 Build 0)  -->
<svg version="1.1" id="Layer_1" shape-rendering="crispEdges"
	 xmlns="http://www.w3.org/2000/svg" xmlns:xlink="http://www.w3.org/1999/xlink" x="0px" y="0px" viewBox="0 0 24 24"
	 style="enable-background:new 0 0 24 24;" xml:space="preserve">
<style type="text/css">
	.st0{fill:#FFFFFF;}
</style>
<desc>Created with Sketch.</desc>
<g>
	<g>
		<path class="st0" d="M3.5,16.5c-0.3,0.3-0.4,0.7-0.1,1.1c1,1.4,2.3,2.6,3.8,3.3c4.9,2.4,11,0.4,13.4-4.5s0.4-11-4.5-13.4
			c-1.5-0.8-3.4-1.1-5.1-1c-0.4,0-0.7,0.3-0.8,0.7c-0.1,0.4,0.1,0.8,0.5,1l0.2,0.1c0.1,0,0.1,0,0.2,0.1c3.5,1.7,4.9,5.9,3.2,9.4
			s-5.9,4.9-9.4,3.2l-0.2-0.1C4.3,16.2,3.9,16.4,3.5,16.5z M7.4,19c3.4,0.3,6.8-1.6,8.4-4.9c1.6-3.3,1-7.1-1.3-9.8
			c0.3,0.1,0.5,0.3,0.8,0.4c4,2,5.7,7,3.7,11s-7,5.7-11,3.7C7.9,19.4,7.7,19.2,7.4,19z"/>
	</g>
	<path class="st0" d="M6.4,6l1,2l2.2,0.3L8,9.8L8.4,12l-1.9-1l-1.9,1l0.4-2.2L3.3,8.3L5.5,8L6.4,6 M6.4,5C6.1,5,5.7,5.3,5.5,5.6
		L4.8,7.1L3.2,7.3C2.8,7.4,2.5,7.6,2.3,8c-0.1,0.4,0,0.8,0.3,1l1.2,1.2l-0.3,1.6c-0.1,0.4,0.1,0.8,0.4,1C4.1,12.9,4.3,13,4.5,13
		c0.2,0,0.3,0,0.5-0.1l1.5-0.8l1.5,0.8C8.1,13,8.2,13,8.4,13c0.2,0,0.4-0.1,0.6-0.2c0.3-0.2,0.5-0.6,0.4-1l-0.3-1.6L10.3,9
		c0.3-0.3,0.4-0.7,0.3-1c-0.1-0.4-0.4-0.6-0.8-0.7L8.1,7.1L7.3,5.6C7.2,5.3,6.8,5,6.4,5L6.4,5z"/>
</g>
</svg>
