<?xml version="1.0" encoding="utf-8"?>
<!-- Generator: Adobe Illustrator 24.0.3, SVG Export Plug-In . SVG Version: 6.00 Build 0)  -->
<svg version="1.1" id="Layer_1" xmlns="http://www.w3.org/2000/svg" xmlns:xlink="http://www.w3.org/1999/xlink" x="0px" y="0px"
	 viewBox="0 0 24 24" style="enable-background:new 0 0 24 24;" xml:space="preserve">
<style type="text/css">
	.st0{enable-background:new    ;}
	.st1{fill:#BABABA;}
</style>
<g class="st0">
	<path class="st1" d="M20.3,23.1H3.7c-1.6,0-2.8-1.3-2.8-2.8V3.7c0-1.6,1.3-2.8,2.8-2.8h16.5c1.6,0,2.8,1.3,2.8,2.8v16.5
		C23.1,21.8,21.8,23.1,20.3,23.1z M4,20.5H20c0.3,0,0.5-0.2,0.5-0.5V4c0-0.3-0.2-0.5-0.5-0.5H4C3.7,3.5,3.5,3.7,3.5,4V20
		C3.5,20.3,3.7,20.5,4,20.5z"/>
</g>
</svg>
