<?xml version="1.0" encoding="utf-8"?>
<!-- Generator: Adobe Illustrator 24.2.1, SVG Export Plug-In . SVG Version: 6.00 Build 0)  -->
<!DOCTYPE svg PUBLIC "-//W3C//DTD SVG 1.1//EN" "http://www.w3.org/Graphics/SVG/1.1/DTD/svg11.dtd" [
	<!ENTITY ns_extend "http://ns.adobe.com/Extensibility/1.0/">
	<!ENTITY ns_ai "http://ns.adobe.com/AdobeIllustrator/10.0/">
	<!ENTITY ns_graphs "http://ns.adobe.com/Graphs/1.0/">
	<!ENTITY ns_vars "http://ns.adobe.com/Variables/1.0/">
	<!ENTITY ns_imrep "http://ns.adobe.com/ImageReplacement/1.0/">
	<!ENTITY ns_sfw "http://ns.adobe.com/SaveForWeb/1.0/">
	<!ENTITY ns_custom "http://ns.adobe.com/GenericCustomNamespace/1.0/">
	<!ENTITY ns_adobe_xpath "http://ns.adobe.com/XPath/1.0/">
]>
<svg version="1.1" id="Layer_1" xmlns:x="&ns_extend;" xmlns:i="&ns_ai;" xmlns:graph="&ns_graphs;"
	 xmlns="http://www.w3.org/2000/svg" xmlns:xlink="http://www.w3.org/1999/xlink" x="0px" y="0px" viewBox="0 0 24 24"
	 style="enable-background:new 0 0 24 24;" xml:space="preserve">
<style type="text/css">
	.st0{fill:#FFFFFF;}
</style>
<metadata>
	<sfw  xmlns="&ns_sfw;">
		<slices></slices>
		<sliceSourceBounds  bottomLeftOrigin="true" height="21.6" width="15" x="4.5" y="1.2"></sliceSourceBounds>
		<optimizationSettings>
			<targetSettings  fileFormat="PNG24Format" targetSettingsID="0">
				<PNG24Format  filtered="false" interlaced="true" matteColor="#FFFFFF" noMatteColor="false" transparency="true">
					</PNG24Format>
			</targetSettings>
		</optimizationSettings>
	</sfw>
</metadata>
<g id="Fork_1_">
	<path class="st0" d="M12,12.4c0.4,0,0.8,0.1,1.1,0.2V4c0-0.6-0.5-1.1-1.1-1.1S10.9,3.4,10.9,4v8.6C11.2,12.5,11.6,12.4,12,12.4z"/>
	<path class="st0" d="M8.5,16c0-0.8,0.3-1.6,0.7-2.2l-2.5-2.5v-9c0-0.6-0.5-1.1-1.1-1.1S4.5,1.7,4.5,2.3v9.5c0,0.3,0.1,0.6,0.3,0.8
		l3.7,3.7C8.5,16.1,8.5,16.1,8.5,16z"/>
	<path class="st0" d="M18.4,1.2c-0.6,0-1.1,0.5-1.1,1.1v9l-2.5,2.5c0.5,0.6,0.7,1.3,0.7,2.2c0,0.1,0,0.2,0,0.3l3.7-3.7
		c0.2-0.2,0.3-0.5,0.3-0.8V2.3C19.5,1.7,19,1.2,18.4,1.2z"/>
	<path class="st0" d="M12,19.5c-0.4,0-0.8-0.1-1.1-0.2v3.5h2.2v-3.5C12.8,19.4,12.4,19.5,12,19.5z"/>
	<path class="st0" d="M12,13.9c-1.2,0-2.1,0.9-2.1,2.1c0,1.1,0.9,2.1,2.1,2.1c1.2,0,2.1-0.9,2.1-2.1C14.1,14.8,13.2,13.9,12,13.9z"
		/>
</g>
</svg>
