<?xml version="1.0" encoding="utf-8"?>
<!-- Generator: Adobe Illustrator 25.1.0, SVG Export Plug-In . SVG Version: 6.00 Build 0)  -->
<svg version="1.1" id="ic_staking_on" shape-rendering="geometricPrecision"
	 xmlns="http://www.w3.org/2000/svg" xmlns:xlink="http://www.w3.org/1999/xlink" x="0px" y="0px" viewBox="0 0 24 24"
	 style="enable-background:new 0 0 24 24;" xml:space="preserve">
<style type="text/css">
	.st0{fill:#FFFFFF;}
</style>
<path class="st0" d="M19.5,7.7c0.1-0.2,0-0.3-0.1-0.4l0.1-0.1C19.6,7.1,19.6,7,19.6,7c0.2-0.2,0.2-0.4,0-0.5l-1-1
	c-0.2-0.2-0.4-0.2-0.5,0l-0.2,0.2c-0.2-0.1-0.3-0.2-0.5-0.1c-0.9-0.7-1.8-1.3-2.8-1.7c-1.2-0.6-2.3-0.8-3.4-0.7c-0.1,0-0.1,0-0.1,0
	s0,0,0,0.1c0,0.1,0,0.1,0.1,0.2c1.1,0.4,2.9,1.7,4.8,3.5c-0.1,0.2-0.1,0.4,0.1,0.6L11.4,12l-1.6-1.6v-0.1l-0.2-0.2L9.3,9.8l1.5-1.5
	c0.2-0.2,0.2-0.4,0-0.5L8.1,5.1c-1.3-1.4-3.5-1.4-4.9,0s-1.4,3.5,0,4.9l2.7,2.7c0.2,0.2,0.4,0.2,0.5,0l1.5-1.5l0.4,0.4
	c0,0,0.1,0.1,0.1,0l1.6,1.6l-5.8,6c-0.1,0.1-0.2,0.2-0.1,0.3c0,0.1,0,0.2,0.1,0.3l1,1c0.1,0.1,0.2,0.2,0.3,0.1c0.1,0,0.2,0,0.3-0.1
	l5.9-5.9l1.9,1.9l4,4c0.2,0.2,0.4,0.2,0.5,0l0.1-0.1l0.6-0.6l0.1-0.1c0.2-0.2,0.2-0.4,0-0.5l-3.9-4L13,13.5l2.2-2.2L17.5,9
	c0.2,0.1,0.4,0.2,0.6,0.1c1.7,1.8,3,3.6,3.5,4.8c0,0,0,0,0,0.1h0.1c0.1,0,0.1-0.1,0.1-0.1c0.1,0,0.1-0.1,0.1-0.1
	C22,12,21.1,9.7,19.5,7.7z"/>
</svg>
