<?xml version="1.0" encoding="utf-8"?>
<!-- Generator: Adobe Illustrator 24.1.1, SVG Export Plug-In . SVG Version: 6.00 Build 0)  -->
<!DOCTYPE svg PUBLIC "-//W3C//DTD SVG 1.1//EN" "http://www.w3.org/Graphics/SVG/1.1/DTD/svg11.dtd" [
	<!ENTITY ns_extend "http://ns.adobe.com/Extensibility/1.0/">
	<!ENTITY ns_ai "http://ns.adobe.com/AdobeIllustrator/10.0/">
	<!ENTITY ns_graphs "http://ns.adobe.com/Graphs/1.0/">
	<!ENTITY ns_vars "http://ns.adobe.com/Variables/1.0/">
	<!ENTITY ns_imrep "http://ns.adobe.com/ImageReplacement/1.0/">
	<!ENTITY ns_sfw "http://ns.adobe.com/SaveForWeb/1.0/">
	<!ENTITY ns_custom "http://ns.adobe.com/GenericCustomNamespace/1.0/">
	<!ENTITY ns_adobe_xpath "http://ns.adobe.com/XPath/1.0/">
]>
<svg version="1.1" id="ic-transaction-staked" xmlns:x="&ns_extend;" xmlns:i="&ns_ai;" xmlns:graph="&ns_graphs;"
	 xmlns="http://www.w3.org/2000/svg" xmlns:xlink="http://www.w3.org/1999/xlink" x="0px" y="0px" viewBox="0 0 24 24"
	 style="enable-background:new 0 0 24 24;" xml:space="preserve">
<style type="text/css">
	.st0{fill:none;}
	.st1{fill:#FFFFFF;}
</style>
<metadata>
	<sfw  xmlns="&ns_sfw;">
		<slices></slices>
		<sliceSourceBounds  bottomLeftOrigin="true" height="24" width="24" x="0" y="0"></sliceSourceBounds>
	</sfw>
</metadata>
<path id="Rectangle_4527" class="st0" d="M0,0h24v24H0V0z"/>
<path class="st1" d="M19.1,2.2c-1,0.2-2.1,0.6-2.9,1.2c-0.1,0.1-0.3,0.2-0.4,0.3c0,0,0,0,0,0c0,0,0,0,0-0.1c0.3-0.3,0.6-0.6,0.9-0.9
	c0.1-0.1,0.3-0.2,0.4-0.3c0.3-0.3,0.7-0.7,1-1c0.1-0.1,0.2-0.2,0.3-0.3c0,0,0,0-0.1,0c-1.4,0.7-2.8,1.6-3.8,2.9c0,0,0,0-0.1,0
	c0.2-0.5,0.4-1.1,0.6-1.6c0,0,0,0,0,0c0,0-0.1,0-0.1,0.1c-0.3,0.5-0.7,0.9-1,1.4c-0.3,0.6-0.6,1.2-0.9,1.8c-0.1,0.2-0.2,0.5-0.3,0.7
	l-0.7-0.5c0,0-0.1,0-0.1-0.1c0,0,0,0,0,0l0,0c-0.1-0.1-0.1-0.1-0.2-0.1c-0.2,0-0.3,0.1-0.4,0.3c0,0.1,0,0.3,0.1,0.4
	c0.1,0.2,0.1,0.8,0.1,1l0,0c0,0.3,0,0.7-0.1,0.9c-0.4,1.1-1.2,1.3-2.2,1.6c-0.5,0.1-1,0.3-1.4,0.5c-1.8,0.9-3.2,2.9-3.4,4.7
	c-0.1,1.3,0.2,2.6,0.8,3.8C5.9,20,6.8,21,7.9,21.7c1.4,0.9,3,1.3,4.6,1.3c0.6,0,1.2-0.1,1.8-0.2c1.8-0.4,3.2-1.4,4.1-2.9
	c0.9-1.5,1.1-3.4,0.6-5.2c-0.5-1.7-1.6-3.3-3.1-4.2c-1.6-1-1.1-2.5-1.1-2.5c0.1-0.2,0-0.4-0.1-0.5L14,7.1c0.1-0.1,0.1-0.1,0.2-0.2
	c0.5-0.5,1-1,1.5-1.5c0.5-0.5,1.1-0.9,1.6-1.4c0.5-0.4,1-0.7,1.5-1.1c0.2-0.2,0.4-0.3,0.6-0.5c0.1,0,0.1-0.1,0.1-0.1
	C19.5,2.1,19.3,2.2,19.1,2.2z M8.3,20.3c-0.7-1.1-1-2.5-0.8-4c0.3-2.8,2.3-4.9,4.4-4.9c0,0,0.1,0,0.1,0l-0.2,1.5
	c-0.5,0.1-1,0.6-1.5,1.3c-0.5,0.9-0.9,2.1-1.1,3.4c-0.2,1.3-0.1,2.6,0.2,3.6c0.1,0.2,0.2,0.5,0.3,0.7c-0.1,0-0.2-0.1-0.3-0.1
	C9,21.3,8.6,20.9,8.3,20.3z M13.6,18c-0.1,0.8-0.3,1.6-0.6,2.3c-0.2,0.3-0.4,0.5-0.6,0.7c0.2-0.7,0.4-1.5,0.5-2.3
	c0.1-1.1,0.1-2.1,0-2.9c-0.1-0.6-0.2-1-0.4-1.2l0.1-1.2c0.3,0.2,0.6,0.7,0.7,1.3C13.6,15.6,13.7,16.8,13.6,18z M9.9,21
	c-0.3-0.9-0.4-2.1-0.2-3.4c0.2-1.3,0.5-2.4,1-3.3c0.3-0.6,0.7-1,1.1-1.1l-0.2,1.3c-0.2,0.2-0.4,0.5-0.6,1c-0.3,0.7-0.5,1.8-0.7,2.8
	c-0.1,1.1-0.1,2.1,0,2.9c0,0.2,0.1,0.4,0.1,0.6c0,0-0.1,0-0.1,0C10.2,21.7,10,21.4,9.9,21z M10.7,21.3c-0.1-0.8-0.1-1.8,0-2.8
	c0.1-1.1,0.4-2,0.6-2.7c0.1-0.2,0.1-0.3,0.2-0.4l-0.8,6.4C10.8,21.6,10.7,21.5,10.7,21.3z M11.6,21.8l0.8-6.5
	c0.1,0.2,0.1,0.4,0.1,0.6c0.1,0.8,0.1,1.8,0,2.8h0c-0.1,1.1-0.4,2-0.6,2.7c0,0.1,0,0.1-0.1,0.2C11.7,21.7,11.7,21.7,11.6,21.8z
	 M13.9,18.1c0.2-1.3,0.1-2.6-0.2-3.6c-0.2-0.8-0.6-1.3-1.1-1.6l0.2-1.5c0.3,0.1,0.6,0.2,0.9,0.4c0.7,2.2,0.8,4.7,0.1,6.7
	C13.9,18.5,13.9,18.3,13.9,18.1z M12.9,11.1l0.2-1.7c0.1,0.6,0.2,1.2,0.5,1.9C13.3,11.2,13.1,11.2,12.9,11.1z M5.2,15.2
	c0.2-1.5,1.4-3.3,2.9-4.1c0.4-0.2,0.9-0.4,1.3-0.5c1-0.3,2.2-0.7,2.7-2l0,0c0,0,0.2-0.3,0.3-0.7l-0.4,3c-1.1,0-2.2,0.4-3.2,1.4
	c-1,1-1.6,2.4-1.8,3.9c-0.2,1.5,0.1,3.1,0.8,4.2c0.1,0.2,0.2,0.4,0.4,0.5c0,0,0,0,0,0C6.3,19.8,5,17.4,5.2,15.2z M15.4,11.2
	c2.9,1.9,3.9,5.6,2.2,8.3c-0.8,1.3-2,2.2-3.6,2.5c-0.6,0.1-1.1,0.2-1.7,0.2c0,0,0,0,0,0c1.4-1.1,2.2-2.6,2.6-4.6
	c0.4-2,0.1-4.4-0.7-6.5c-0.4-1-0.5-1.9-0.4-2.5c0,0.1,0,0.2,0,0.3C14,9.5,14.3,10.4,15.4,11.2z"/>
</svg>
