<?xml version="1.0" encoding="utf-8"?>
<!-- Generator: Adobe Illustrator 25.1.0, SVG Export Plug-In . SVG Version: 6.00 Build 0)  -->
<svg version="1.1" id="ic_staking_off" shape-rendering="geometricPrecision"
	 xmlns="http://www.w3.org/2000/svg" xmlns:xlink="http://www.w3.org/1999/xlink" x="0px" y="0px" viewBox="0 0 24 24"
	 style="enable-background:new 0 0 24 24;" xml:space="preserve">
<style type="text/css">
	.st0{opacity:0.74;fill:#FFFFFF;}
</style>
<path class="st0" d="M20.6,7c0.1-0.2,0-0.4-0.1-0.5l0.1-0.1c0.1-0.1,0.1-0.2,0.1-0.2c0.2-0.2,0.2-0.5,0-0.6l-1.1-1.1
	c-0.2-0.2-0.5-0.2-0.6,0l-0.2,0.2c-0.2-0.1-0.4-0.2-0.6-0.1c-1-0.8-2.1-1.5-3.2-2c-1.4-0.7-2.7-0.9-3.9-0.8c-0.1,0-0.1,0-0.1,0
	s0,0,0,0.1C11,2,11,2,11.1,2.1c1.3,0.5,3.4,2,5.5,4c-0.1,0.2-0.1,0.5,0.1,0.7L11.3,12l-1.9-1.9V10L9.2,9.8L8.9,9.5l1.7-1.7
	c0.2-0.2,0.2-0.5,0-0.6L7.5,4C6,2.4,3.4,2.4,1.8,4s-1.6,4.1,0,5.7l3.1,3.1c0.2,0.2,0.5,0.2,0.6,0l1.7-1.7l0.5,0.5c0,0,0.1,0.1,0.1,0
	l1.9,1.9L3,20.4c-0.1,0.1-0.2,0.2-0.1,0.3c0,0.1,0,0.2,0.1,0.3l1.1,1.1c0.1,0.1,0.2,0.2,0.3,0.1c0.1,0,0.2,0,0.3-0.1l6.8-6.8
	l2.2,2.2l4.6,4.6c0.2,0.2,0.5,0.2,0.6,0L19,22l0.7-0.7l0.1-0.1c0.2-0.2,0.2-0.5,0-0.6L15.3,16l-2.2-2.2l2.6-2.6l2.6-2.6
	c0.2,0.1,0.5,0.2,0.7,0.1c2,2.1,3.5,4.2,4,5.5c0,0,0,0,0,0.1h0.1c0.1,0,0.1-0.1,0.1-0.1c0.1,0,0.1-0.1,0.1-0.1
	C23.5,12,22.5,9.3,20.6,7z"/>
</svg>
