<?xml version="1.0" encoding="utf-8"?>
<!-- Generator: Adobe Illustrator 25.1.0, SVG Export Plug-In . SVG Version: 6.00 Build 0)  -->
<svg version="1.1" id="Layer_1" xmlns="http://www.w3.org/2000/svg" xmlns:xlink="http://www.w3.org/1999/xlink" x="0px" y="0px"
	 viewBox="0 0 30 22" style="enable-background:new 0 0 30 22;" xml:space="preserve">
<style type="text/css">
	.st0{fill:#EC2A7B;}
</style>
<g id="Clear-Purple">
	<path class="st0" d="M17.9,14.5L14.4,11l3.5-3.5c0.4-0.4,0.4-1,0-1.4s-1-0.4-1.4,0L13,9.6L9.5,6.1C9.2,5.8,8.7,5.7,8.3,5.9
		C8.3,6,8.2,6,8.1,6.1c-0.4,0.4-0.4,1,0,1.4l3.5,3.5c0,0-3.5,3.5-3.5,3.5c-0.2,0.2-0.3,0.4-0.3,0.6c0,0.3,0.1,0.6,0.3,0.8
		c0.4,0.4,1,0.4,1.4,0l3.5-3.5l3.1,3.1l0.4,0.4c0.4,0.4,1,0.4,1.4,0S18.3,14.9,17.9,14.5z"/>
</g>
</svg>
