<?xml version="1.0" encoding="utf-8"?>
<!-- Generator: Adobe Illustrator 25.1.0, SVG Export Plug-In . SVG Version: 6.00 Build 0)  -->
<svg version="1.1" id="ic_unlocked" shape-rendering="geometricPrecision"
	 xmlns="http://www.w3.org/2000/svg" xmlns:xlink="http://www.w3.org/1999/xlink" x="0px" y="0px" viewBox="0 0 24 24"
	 style="enable-background:new 0 0 24 24;" xml:space="preserve">
<style type="text/css">
	.st0{fill:none;}
	.st1{fill:#FFFFFF;}
</style>
<path id="Rectangle_4444" class="st0" d="M0,0h24v24H0V0z"/>
<path class="st1" d="M18.1,10.1H7.5v-2c0-2.3,1.9-4.2,4.2-4.2h0.5c2,0,3.7,1.4,4.1,3.3c0.1,0.6,0.7,1,1.3,0.9c0.6-0.1,1-0.7,0.9-1.3
	c-0.6-3-3.3-5.2-6.3-5.2h-0.5c-3.6,0-6.5,2.9-6.5,6.5v2H3.1v10.8l8.8,2.3l9-2.3v-8.5C20.8,11.1,19.7,10.1,18.1,10.1z M18.6,19
	l-6.7,1.7l-6.5-1.7v-6.7h12.8c0.2,0,0.3,0,0.4,0.1V19z"/>
</svg>
