<?xml version="1.0" encoding="utf-8"?>
<!-- Generator: Adobe Illustrator 24.0.3, SVG Export Plug-In . SVG Version: 6.00 Build 0)  -->
<svg version="1.1" id="ic_peers_connection" shape-rendering="geometricPrecision"
	 xmlns="http://www.w3.org/2000/svg" xmlns:xlink="http://www.w3.org/1999/xlink" x="0px" y="0px" viewBox="0 0 24 24"
	 style="enable-background:new 0 0 24 24;" xml:space="preserve">
<style type="text/css">
	.st0{fill:none;}
	.st1{fill:#FFFFFF;}
</style>
<path id="Rectangle_4410" class="st0" d="M0,0h24v24H0V0z"/>
<path class="st1" d="M18.6,14.4c-0.8,0-1.6,0.3-2.3,0.7l-3.1-2.8V9.5c1.8-0.4,3.1-2.1,3.1-4c0-2.3-1.8-4.1-4.1-4.1
	c-2.3,0-4.1,1.8-4.1,4.1c0,1.9,1.3,3.5,3.1,4v2.7l-3.3,3c-0.7-0.5-1.5-0.9-2.5-0.9c-2.3,0-4.1,1.8-4.1,4.1c0,2.3,1.8,4.1,4.1,4.1
	c2.3,0,4.1-1.8,4.1-4.1c0-0.6-0.1-1.2-0.4-1.7l3-2.7l2.7,2.5c-0.3,0.6-0.5,1.2-0.5,2c0,2.3,1.8,4.1,4.1,4.1c2.3,0,4.1-1.8,4.1-4.1
	C22.7,16.2,20.8,14.4,18.6,14.4z M10.1,5.5c0-1.2,1-2.1,2.1-2.1c1.2,0,2.1,1,2.1,2.1s-1,2.1-2.1,2.1C11,7.6,10.1,6.7,10.1,5.5z
	 M5.4,20.6c-1.2,0-2.1-1-2.1-2.1c0-1.2,1-2.1,2.1-2.1s2.1,1,2.1,2.1C7.6,19.6,6.6,20.6,5.4,20.6z M18.6,20.6c-1.2,0-2.1-1-2.1-2.1
	c0-1.2,1-2.1,2.1-2.1c1.2,0,2.1,1,2.1,2.1C20.7,19.6,19.7,20.6,18.6,20.6z"/>
</svg>
