<svg width="24" height="24" viewBox="0 0 24 24" fill="none" xmlns="http://www.w3.org/2000/svg">
<path opacity="0.997" fill-rule="evenodd" clip-rule="evenodd" d="M20.556 3.444V20.556H3.444V3.444H20.556ZM20.556 1H3.444C2.79646 1.00211 2.17604 1.26028 1.71816 1.71816C1.26028 2.17604 1.00211 2.79646 1 3.444V20.556C1.00211 21.2035 1.26028 21.824 1.71816 22.2818C2.17604 22.7397 2.79646 22.9979 3.444 23H20.556C21.2035 22.9979 21.824 22.7397 22.2818 22.2818C22.7397 21.824 22.9979 21.2035 23 20.556V3.444C22.9979 2.79646 22.7397 2.17604 22.2818 1.71816C21.824 1.26028 21.2035 1.00211 20.556 1V1Z" fill="#BABABA"/>
<line x1="21.0607" y1="3.06066" x2="3.06066" y2="21.0607" stroke="#BABABA" stroke-width="3"/>
</svg>
