<?xml version="1.0" encoding="utf-8"?>
<!-- Generator: Adobe Illustrator 25.1.0, SVG Export Plug-In . SVG Version: 6.00 Build 0)  -->
<svg version="1.1" id="ic_locked" xmlns="http://www.w3.org/2000/svg" xmlns:xlink="http://www.w3.org/1999/xlink" x="0px" y="0px"
	 viewBox="0 0 24 24" style="enable-background:new 0 0 24 24;" xml:space="preserve">
<style type="text/css">
	.st0{opacity:0.74;enable-background:new    ;}
	.st1{fill:#FFFFFF;}
</style>
<g class="st0">
	<g>
		<g>
			<g>
				<path class="st1" d="M18.7,11.4c0.2,0,0.4,0,0.5,0.1v7.2l-7.3,1.9l-7.1-1.8v-7.3H18.7 M18.7,8.9H2.3v11.8l9.6,2.5l9.8-2.5v-9.3
					C21.7,9.9,20.5,8.9,18.7,8.9L18.7,8.9z"/>
			</g>
		</g>
		<g>
			<path class="st1" d="M19.3,10.1h-2.5v-2c0-2.5-2.1-4.6-4.6-4.6h-0.6c-2.5,0-4.6,2.1-4.6,4.6v2H4.6v-2c0-3.9,3.2-7.1,7.1-7.1h0.6
				c3.9,0,7.1,3.2,7.1,7.1V10.1z"/>
		</g>
	</g>
</g>
</svg>
