<?xml version="1.0" encoding="utf-8"?>
<!-- Generator: Adobe Illustrator 25.1.0, SVG Export Plug-In . SVG Version: 6.00 Build 0)  -->
<svg version="1.1" id="Layer_1" xmlns="http://www.w3.org/2000/svg" xmlns:xlink="http://www.w3.org/1999/xlink" x="0px" y="0px"
	 viewBox="0 0 24 24" style="enable-background:new 0 0 24 24;" xml:space="preserve">
<style type="text/css">
	.st0{fill:none;}
	.st1{fill-rule:evenodd;clip-rule:evenodd;fill:#009CE1;}
</style>
<path id="Rectangle_4538" class="st0" d="M0,0h24v24H0V0z"/>
<path class="st1" d="M20.6,1H3.4C2.1,1,1,2.1,1,3.4v17.1C1,21.9,2.1,23,3.4,23h17.1c1.3,0,2.4-1.1,2.4-2.4V3.4C23,2.1,21.9,1,20.6,1
	z M19.6,8.3l-9.2,9.2c-0.3,0.3-0.6,0.4-0.9,0.4c-0.4,0-0.6-0.1-0.9-0.4l-4.9-4.8c-0.5-0.5-0.5-1.2,0-1.8c0.5-0.5,1.2-0.5,1.8,0
	l3.9,3.9l8.3-8.3c0.5-0.5,1.2-0.5,1.8,0C20.1,7.1,20.1,7.7,19.6,8.3z"/>
</svg>
