<?xml version="1.0" encoding="utf-8"?>
<!-- Generator: Adobe Illustrator 25.1.0, SVG Export Plug-In . SVG Version: 6.00 Build 0)  -->
<svg version="1.1" id="Layer_1" xmlns="http://www.w3.org/2000/svg" xmlns:xlink="http://www.w3.org/1999/xlink" x="0px" y="0px"
	 viewBox="0 0 22 22" style="enable-background:new 0 0 22 22;" xml:space="preserve">
<style type="text/css">
	.st0{fill:none;}
	.st1{fill-rule:evenodd;clip-rule:evenodd;fill:#009CE1;}
</style>
<desc>Created with Sketch.</desc>
<polygon id="Rectangle_4538" class="st0" points="-1,-1 23,-1 23,23 -1,23 "/>
<path class="st1" d="M19.6,0H2.4C1.1,0,0,1.1,0,2.4v17.1C0,20.9,1.1,22,2.4,22h17.1c1.3,0,2.4-1.1,2.4-2.4V2.4C22,1.1,20.9,0,19.6,0
	z M17.7,13H4.4c-0.8,0-1.5-0.7-1.5-1.5S3.6,10,4.4,10h13.3c0.8,0,1.5,0.7,1.5,1.5S18.5,13,17.7,13z"/>
</svg>
