<?xml version="1.0" encoding="utf-8"?>
<!-- Generator: Adobe Illustrator 24.1.1, SVG Export Plug-In . SVG Version: 6.00 Build 0)  -->
<!DOCTYPE svg PUBLIC "-//W3C//DTD SVG 1.1//EN" "http://www.w3.org/Graphics/SVG/1.1/DTD/svg11.dtd" [
	<!ENTITY ns_extend "http://ns.adobe.com/Extensibility/1.0/">
	<!ENTITY ns_ai "http://ns.adobe.com/AdobeIllustrator/10.0/">
	<!ENTITY ns_graphs "http://ns.adobe.com/Graphs/1.0/">
	<!ENTITY ns_vars "http://ns.adobe.com/Variables/1.0/">
	<!ENTITY ns_imrep "http://ns.adobe.com/ImageReplacement/1.0/">
	<!ENTITY ns_sfw "http://ns.adobe.com/SaveForWeb/1.0/">
	<!ENTITY ns_custom "http://ns.adobe.com/GenericCustomNamespace/1.0/">
	<!ENTITY ns_adobe_xpath "http://ns.adobe.com/XPath/1.0/">
]>
<svg version="1.1"
	 id="Layer_1" xmlns:x="&ns_extend;" xmlns:i="&ns_ai;" xmlns:graph="&ns_graphs;" shape-rendering="geometricPrecision"
	 xmlns="http://www.w3.org/2000/svg" xmlns:xlink="http://www.w3.org/1999/xlink" x="0px" y="0px" viewBox="0 0 24 24"
	 style="enable-background:new 0 0 24 24;" xml:space="preserve">
<style type="text/css">
	.st0{fill:#FFFFFF;}
</style>
<metadata>
	<sfw  xmlns="&ns_sfw;">
		<slices></slices>
		<sliceSourceBounds  bottomLeftOrigin="true" height="18.81" width="18.84" x="2.58" y="2.6"></sliceSourceBounds>
	</sfw>
</metadata>
<desc>Created with Sketch.</desc>
<g>
	<path class="st0" d="M19.89,12.33c-0.59,0-1.09,0.39-1.18,0.99c-0.11,0.47-0.17,0.83-0.31,1.22c-0.12,0.34-0.27,0.68-0.45,1
		c-0.34,0.62-0.79,1.19-1.31,1.68c-0.53,0.48-1.14,0.88-1.79,1.17c-0.25,0.11-0.51,0.21-0.78,0.28c-2.36,0.7-4.91,0.05-6.89-1.72
		c-0.04-0.05-0.07-0.09-0.1-0.13l0.79,0.28c0.52,0.18,1.09-0.09,1.28-0.61c0.04-0.11,0.06-0.22,0.06-0.33c0-0.41-0.25-0.8-0.67-0.94
		c0,0-3.41-1.34-3.42-1.34c-0.52-0.18-1.09,0.09-1.28,0.61l-1.21,3.41c-0.18,0.52,0.09,1.09,0.61,1.28
		c0.11,0.04,0.22,0.06,0.33,0.06c0.41,0,0.8-0.25,0.94-0.67l0.19-0.53c0.29,0.31,0.56,0.54,0.56,0.54c1.95,1.87,4.4,2.86,6.87,2.86
		c0.88,0,1.77-0.13,2.64-0.38c0.7-0.21,1.37-0.5,2-0.86c0.62-0.36,1.19-0.79,1.71-1.29c0.51-0.5,0.97-1.05,1.35-1.66
		c0.39-0.61,0.7-1.28,0.94-1.96c0.19-0.57,0.31-1.13,0.31-1.73C21.08,12.92,20.58,12.33,19.89,12.33z"/>
	<path class="st0" d="M4.11,11.67c0.59,0,1.09-0.39,1.18-0.99C5.4,10.22,5.46,9.85,5.6,9.47c0.12-0.34,0.27-0.68,0.45-1
		C6.39,7.85,6.83,7.28,7.36,6.8c0.53-0.48,1.14-0.88,1.79-1.17C9.4,5.52,9.66,5.43,9.93,5.35c2.36-0.7,4.91-0.05,6.89,1.72
		c0.04,0.05,0.07,0.09,0.1,0.13l-0.79-0.28c-0.52-0.18-1.09,0.09-1.28,0.61c-0.04,0.11-0.06,0.22-0.06,0.33
		c0,0.41,0.25,0.8,0.67,0.94c0,0,3.41,1.34,3.42,1.34c0.52,0.18,1.09-0.09,1.28-0.61l1.21-3.41c0.18-0.52-0.09-1.09-0.61-1.28
		c-0.11-0.04-0.22-0.06-0.33-0.06c-0.41,0-0.8,0.25-0.94,0.67l-0.19,0.53c-0.29-0.31-0.56-0.54-0.56-0.54
		c-1.95-1.87-4.4-2.86-6.87-2.86c-0.88,0-1.77,0.13-2.64,0.38c-0.7,0.21-1.37,0.5-2,0.86C6.6,4.2,6.03,4.64,5.52,5.13
		C5,5.63,4.55,6.19,4.17,6.79C3.78,7.4,3.47,8.06,3.23,8.75c-0.19,0.57-0.31,1.13-0.31,1.73C2.92,11.08,3.42,11.67,4.11,11.67z"/>
</g>
</svg>
