<?xml version="1.0" encoding="utf-8"?>
<!-- Generator: Adobe Illustrator 25.1.0, SVG Export Plug-In . SVG Version: 6.00 Build 0)  -->
<svg version="1.1" id="ic_light_theme" shape-rendering="geometricPrecision"
	 xmlns="http://www.w3.org/2000/svg" xmlns:xlink="http://www.w3.org/1999/xlink" x="0px" y="0px" viewBox="0 0 24 24"
	 style="enable-background:new 0 0 24 24;" xml:space="preserve">
<style type="text/css">
	.st0{fill:none;}
	.st1{fill:#FFFFFF;}
</style>
<path id="Rectangle_4426" class="st0" d="M0,0h24v24H0V0z"/>
<g>
	<g>
		<path class="st1" d="M12.1,2H12c-0.3,0-0.5,0.2-0.5,0.5v2.9c0,0.3,0.2,0.5,0.5,0.5h0.2c0.3,0,0.5-0.2,0.5-0.5V2.5
			C12.6,2.2,12.4,2,12.1,2z"/>
		<path class="st1" d="M12.1,18.2h-0.2c-0.3,0-0.5,0.2-0.5,0.5v2.9c0,0.3,0.2,0.5,0.5,0.5h0.2c0.3,0,0.5-0.2,0.5-0.5v-2.9
			C12.6,18.4,12.4,18.2,12.1,18.2z"/>
		<path class="st1" d="M21.9,12.1v-0.2c0-0.3-0.2-0.5-0.5-0.5h-2.8c-0.3,0-0.5,0.2-0.5,0.5v0.2c0,0.3,0.2,0.5,0.5,0.5h2.8
			C21.7,12.6,21.9,12.4,21.9,12.1z"/>
		<path class="st1" d="M5.9,12.1v-0.2c0-0.3-0.2-0.5-0.5-0.5H2.5c-0.3,0-0.5,0.2-0.5,0.5v0.2c0,0.3,0.2,0.5,0.5,0.5h2.9
			C5.7,12.6,5.9,12.4,5.9,12.1z"/>
		<path class="st1" d="M19.2,5.1L19,4.9c-0.2-0.2-0.5-0.2-0.6,0l-2,2c-0.2,0.2-0.2,0.5,0,0.6l0.1,0.1c0.2,0.2,0.5,0.2,0.6,0l2-2
			C19.3,5.5,19.3,5.2,19.2,5.1z"/>
		<path class="st1" d="M7.7,16.5l-0.2-0.1c-0.2-0.2-0.5-0.2-0.6,0l-2.1,2.2c-0.2,0.2-0.2,0.5,0,0.6L5,19.3c0.2,0.2,0.5,0.2,0.6,0
			l2.1-2.2C7.9,16.9,7.9,16.6,7.7,16.5z"/>
		<path class="st1" d="M4.9,5l0.1-0.1c0.2-0.2,0.5-0.2,0.6,0l2.1,2.1C8,7.1,8,7.4,7.8,7.5L7.6,7.7C7.5,7.9,7.2,7.9,7,7.7L4.9,5.6
			C4.8,5.4,4.8,5.2,4.9,5z"/>
		<path class="st1" d="M16.4,16.4l0.2-0.1c0.2-0.2,0.5-0.2,0.6,0l2,2.1c0.2,0.2,0.2,0.5,0,0.6l-0.2,0.1c-0.2,0.2-0.5,0.2-0.6,0
			l-2-2.1C16.2,16.9,16.2,16.6,16.4,16.4z"/>
		<g>
			<g>
				<path class="st1" d="M12,8.8c1.8,0,3.2,1.4,3.2,3.2c0,1.8-1.4,3.2-3.2,3.2S8.8,13.8,8.8,12C8.8,10.3,10.3,8.8,12,8.8 M12,7
					C9.2,7,7,9.2,7,12c0,2.8,2.3,5.1,5.1,5.1c2.8,0,5.1-2.3,5.1-5.1C17.1,9.2,14.8,7,12,7L12,7z"/>
			</g>
		</g>
	</g>
</g>
</svg>
