<?xml version="1.0" encoding="utf-8"?>
<!-- Generator: Adobe Illustrator 24.1.1, SVG Export Plug-In . SVG Version: 6.00 Build 0)  -->
<!DOCTYPE svg PUBLIC "-//W3C//DTD SVG 1.1//EN" "http://www.w3.org/Graphics/SVG/1.1/DTD/svg11.dtd" [
	<!ENTITY ns_extend "http://ns.adobe.com/Extensibility/1.0/">
	<!ENTITY ns_ai "http://ns.adobe.com/AdobeIllustrator/10.0/">
	<!ENTITY ns_graphs "http://ns.adobe.com/Graphs/1.0/">
	<!ENTITY ns_vars "http://ns.adobe.com/Variables/1.0/">
	<!ENTITY ns_imrep "http://ns.adobe.com/ImageReplacement/1.0/">
	<!ENTITY ns_sfw "http://ns.adobe.com/SaveForWeb/1.0/">
	<!ENTITY ns_custom "http://ns.adobe.com/GenericCustomNamespace/1.0/">
	<!ENTITY ns_adobe_xpath "http://ns.adobe.com/XPath/1.0/">
]>
<svg version="1.1" id="Layer_1" xmlns:x="&ns_extend;" xmlns:i="&ns_ai;" xmlns:graph="&ns_graphs;"
	 xmlns="http://www.w3.org/2000/svg" xmlns:xlink="http://www.w3.org/1999/xlink" x="0px" y="0px" viewBox="0 0 128 128"
	 style="enable-background:new 0 0 128 128;" xml:space="preserve">
<style type="text/css">
	.st0{fill:#FFFFFF;}
</style>
<metadata>Created by potrace 1.15, written by Peter Selinger 2001-2017<sfw  xmlns="&ns_sfw;">
	<slices></slices>
	<sliceSourceBounds  bottomLeftOrigin="true" height="56.2" width="108.7" x="9.7" y="35.9"></sliceSourceBounds>
</sfw>
</metadata>
<g>
	<polygon class="st0" points="46.5,58.8 21.9,58.8 21.9,36 9.7,36 9.7,92.1 21.9,92.1 21.9,70.2 46.5,70.2 46.5,92.1 58.6,92.1 
		58.6,36 46.5,36 	"/>
	<path class="st0" d="M90.3,35.9H68V92h22.3c8.3,0,15.4-2.7,20.3-7.7c5-5.1,7.9-12.7,7.7-20.8C118.1,49.8,109.3,35.9,90.3,35.9z
		 M106.2,63.4c0.1,5-1.4,9.4-4.3,12.4c-2.8,2.9-6.7,4.3-11.6,4.3H80.1V47.6h10.1C101.7,47.6,106,55.8,106.2,63.4z"/>
</g>
</svg>
