<?xml version="1.0" encoding="utf-8"?>
<!-- Generator: Adobe Illustrator 25.1.0, SVG Export Plug-In . SVG Version: 6.00 Build 0)  -->
<svg version="1.1" id="ic_mint_on" shape-rendering="geometricPrecision"
	 xmlns="http://www.w3.org/2000/svg" xmlns:xlink="http://www.w3.org/1999/xlink" x="0px" y="0px" viewBox="0 0 24 24"
	 style="enable-background:new 0 0 24 24;" xml:space="preserve">
<style type="text/css">
	.st0{fill:#FFFFFF;}
</style>
<g>
	<g>
		<g>
			<g>
				<g>
					<g>
						<path class="st0" d="M12,21.9c-2.3,0-4.6-0.9-6.3-2.4c-1.7-1.5-2.9-3.7-3.2-6c0-0.3,0.2-0.6,0.4-0.6c0.3,0,0.6,0.2,0.6,0.4
							c0.3,2,1.4,4,2.9,5.3c1.5,1.4,3.5,2.1,5.6,2.1c4.8,0,8.6-4,8.6-8.9S16.7,3.1,12,3.1c-4.4,0-8.1,3.4-8.5,7.9
							c0,0.3-0.3,0.5-0.6,0.5c-0.3,0-0.5-0.3-0.5-0.6C2.9,5.9,7,2.1,12,2.1c5.3,0,9.6,4.5,9.6,9.9C21.6,17.5,17.3,21.9,12,21.9z"/>
					</g>
					<g>
						<path class="st0" d="M12,18.9c-1.8,0-3.5-0.7-4.7-2c-1.2-1.2-2-3-2-4.9c0-1.8,0.7-3.6,2-4.9c1.2-1.3,2.9-2,4.7-2
							c1.7,0,3.4,0.7,4.6,2c0.5,0.6,1,1.2,1.3,1.9c0.1,0.3,0,0.6-0.3,0.7c-0.3,0.1-0.6,0-0.7-0.3c-0.3-0.6-0.6-1.2-1.1-1.6
							c-1-1.1-2.4-1.7-3.8-1.7c-1.5,0-2.9,0.6-3.9,1.7c-1,1.1-1.6,2.6-1.6,4.1c0,1.6,0.6,3.1,1.7,4.1c1.1,1.1,2.4,1.7,3.9,1.7
							c1.4,0,2.7-0.6,3.8-1.7c0.6-0.6,1.1-1.4,1.4-2.3c0.1-0.3,0.4-0.4,0.7-0.3c0.3,0.1,0.5,0.4,0.4,0.7c-0.3,1.1-0.9,2-1.6,2.8
							C15.4,18.2,13.7,18.9,12,18.9z"/>
					</g>
				</g>
			</g>
		</g>
	</g>
	<path class="st0" d="M1.3,15c0.2,0.2,0.6,0.2,0.7-0.1l1-1.3l1.3,1c0.2,0.2,0.6,0.2,0.7-0.1C5.3,14.3,5.3,14,5,13.8l-2.1-1.6l-1.7,2
		C1,14.5,1,14.8,1.3,15z"/>
	<path class="st0" d="M19,8.2c-0.2-0.2-0.6-0.1-0.7,0.1l-1,1.4l-1.4-1c-0.2-0.2-0.6-0.1-0.7,0.1s-0.1,0.6,0.1,0.7l2.2,1.5L19.1,9
		C19.3,8.7,19.2,8.4,19,8.2z"/>
</g>
</svg>
