<svg width="26" height="26" viewBox="0 0 26 26" fill="none" xmlns="http://www.w3.org/2000/svg">
<path d="M13.0001 2C6.93459 2 2.00006 6.93453 2.00006 13C2.00006 19.0655 6.93459 24 13.0001 24C19.0655 24 24.0001 19.0655 24.0001 13C24.0001 6.93453 19.0655 2 13.0001 2ZM13.0001 22.625C7.69256 22.625 3.37506 18.3075 3.37506 13C3.37506 7.6925 7.69256 3.375 13.0001 3.375C18.3076 3.375 22.6251 7.6925 22.6251 13C22.6251 18.3075 18.3076 22.625 13.0001 22.625Z" fill="#707070"/>
<path d="M13.557 6H12.0001V13.4799L16.899 18L18.0001 16.9841L13.557 12.8855V6Z" fill="#707070"/>
</svg>
