<svg width="100" height="100" viewBox="0 0 100 100" fill="none" xmlns="http://www.w3.org/2000/svg">
<path d="M27.77 85.2701C27.27 85.2701 26.87 84.8801 26.87 84.3701V46.8301L26.47 46.7501C17.53 44.9701 11.37 39.4001 8.59 34.7801C7.52 32.9901 7.95 30.6901 9.59 29.4401C10.32 28.8801 11.22 28.5701 12.13 28.5701C13.21 28.5701 14.22 28.9901 14.96 29.7401C20.8 35.6001 26.72 37.9401 27.84 38.3501L27.92 38.3801H40.12L40.2 38.3501C41.33 37.9401 47.24 35.6001 53.08 29.7401C53.83 28.9801 54.83 28.5701 55.91 28.5701C56.82 28.5701 57.72 28.8801 58.45 29.4401C60.09 30.7101 60.51 33.0101 59.45 34.7801C56.68 39.3901 50.52 44.9601 41.57 46.7501L41.17 46.8301V84.3701C41.18 84.6101 41.09 84.8301 40.93 84.9901C40.76 85.1601 40.53 85.2601 40.28 85.2601H27.77V85.2701Z" fill="#D7D6D6"/>
<path d="M75.68 50.0099C70.98 50.0099 67.15 46.1799 67.15 41.4799C67.15 36.78 70.98 32.95 75.68 32.95C80.38 32.95 84.21 36.78 84.21 41.4799C84.21 46.1799 80.38 50.0099 75.68 50.0099Z" fill="#D7D6D6"/>
<path d="M34.02 35.7C38.23 35.7 41.64 32.29 41.64 28.08C41.64 23.87 38.23 20.46 34.02 20.46C29.81 20.46 26.4 23.87 26.4 28.08C26.4 32.29 29.81 35.7 34.02 35.7Z" fill="#D7D6D6"/>
<path d="M75.68 32.95C70.98 32.95 67.15 36.78 67.15 41.4799C67.15 46.1799 70.98 50.0099 75.68 50.0099C80.38 50.0099 84.21 46.1799 84.21 41.4799C84.21 36.78 80.38 32.95 75.68 32.95ZM82.4 41.4799C82.4 42.8499 81.99 44.13 81.28 45.19L76.31 41.1299V34.7999C79.72 35.1099 82.4 37.9799 82.4 41.4799ZM68.96 41.4799C68.96 38.17 71.36 35.42 74.52 34.87V41.5599C74.52 41.8299 74.64 42.08 74.85 42.26L80.08 46.5499C78.9 47.5699 77.37 48.2 75.68 48.2C71.97 48.2 68.96 45.1799 68.96 41.4799Z" fill="#676767"/>
<path d="M68.19 85.27V83.27H72.19V85.27H68.19Z" fill="#676767"/>
<path d="M34.02 36.7C29.32 36.7 25.5 32.84 25.5 28.08C25.5 23.33 29.32 19.46 34.02 19.46C38.72 19.46 42.54 23.32 42.54 28.08C42.54 32.83 38.72 36.7 34.02 36.7ZM34.02 21.12C30.26 21.12 27.2 24.24 27.2 28.08C27.2 31.92 30.26 35.04 34.02 35.04C37.77 35.04 40.81 31.92 40.81 28.08C40.82 26.18 40.05 24.34 38.69 23.03C37.43 21.8 35.77 21.12 34.02 21.12Z" fill="#676767"/>
<path d="M35.52 15L37.52 17H90.52V54H45.52L43.52 56H92.52V15H35.52Z" fill="#676767"/>
<path d="M74.31 85.27V83.27H78.31V85.27H74.31Z" fill="#676767"/>
<path d="M41.17 83.2701V46.8401L41.57 46.7601C50.53 44.9701 56.68 39.4101 59.45 34.7901C60.52 33.0101 60.09 30.7101 58.45 29.4501C57.73 28.8901 56.83 28.5801 55.91 28.5801C54.83 28.5801 53.82 29.0001 53.08 29.7501C47.24 35.6101 41.32 37.9501 40.2 38.3601L40.12 38.3901H27.92L27.84 38.3601C26.71 37.9501 20.8 35.6101 14.96 29.7501C14.21 29.0001 13.21 28.5801 12.13 28.5801C11.22 28.5801 10.32 28.8901 9.59 29.4501C7.96 30.7001 7.53 33.0001 8.59 34.7901C11.37 39.4101 17.53 44.9801 26.47 46.7601L26.87 46.8401V83.2701H15.82V85.2701H65.64V83.2701H41.17ZM27.91 45.1801C18.99 43.7601 12.87 38.4001 10.12 33.8501C9.53 32.8601 9.77 31.5801 10.69 30.8501C11.09 30.5401 11.59 30.3601 12.1 30.3601C12.7 30.3601 13.26 30.5901 13.69 31.0101C20.01 37.3201 26.29 39.7001 27.52 40.1301C27.59 40.1601 27.67 40.1701 27.78 40.1701H40.29C40.39 40.1701 40.48 40.1601 40.58 40.1201C40.65 40.1001 47.54 37.8601 54.38 31.0101C54.79 30.6001 55.34 30.3801 55.94 30.3801C56.46 30.3801 56.96 30.5501 57.37 30.8701C58.28 31.5801 58.52 32.8701 57.92 33.8601C55.2 38.4001 49.1 43.7701 40.14 45.1901C39.7 45.2601 39.38 45.6301 39.38 46.0701V83.2601H28.68V46.0601C28.68 45.6201 28.35 45.2401 27.91 45.1801Z" fill="#676767"/>
<path d="M35.01 83.5001H33.01V66.0601H35.01V83.5001Z" fill="#676767"/>
<path d="M48.47 51.01V49.01H61.96V51.01H48.47Z" fill="#676767"/>
<path d="M65.45 23.98V21.98H78.94V23.98H65.45Z" fill="#676767"/>
<path d="M65.45 29.1201V27.1201H82.4V29.1201H65.45Z" fill="#676767"/>
</svg>
