<svg width="100" height="100" viewBox="0 0 100 100" fill="none" xmlns="http://www.w3.org/2000/svg">
<path d="M27.77 85.27C27.27 85.27 26.87 84.88 26.87 84.37V46.83L26.47 46.75C17.53 44.97 11.37 39.4 8.59 34.78C7.52 32.99 7.95 30.69 9.59 29.44C10.32 28.88 11.22 28.57 12.13 28.57C13.21 28.57 14.22 28.99 14.96 29.74C20.8 35.6 26.72 37.94 27.84 38.35L27.92 38.38H40.12L40.2 38.35C41.33 37.94 47.24 35.6 53.08 29.74C53.83 28.98 54.83 28.57 55.91 28.57C56.82 28.57 57.72 28.88 58.45 29.44C60.09 30.71 60.51 33.01 59.45 34.78C56.68 39.39 50.52 44.96 41.57 46.75L41.17 46.83V84.37C41.18 84.61 41.09 84.83 40.93 84.99C40.76 85.16 40.53 85.26 40.28 85.26H27.77V85.27Z" fill="#423E4B"/>
<path d="M75.68 50.01C70.98 50.01 67.15 46.18 67.15 41.48C67.15 36.78 70.98 32.95 75.68 32.95C80.38 32.95 84.21 36.78 84.21 41.48C84.21 46.18 80.38 50.01 75.68 50.01Z" fill="#423E4B"/>
<path d="M34.02 35.7C38.23 35.7 41.64 32.29 41.64 28.08C41.64 23.87 38.23 20.46 34.02 20.46C29.81 20.46 26.4 23.87 26.4 28.08C26.4 32.29 29.81 35.7 34.02 35.7Z" fill="#423E4B"/>
<path d="M75.68 32.95C70.98 32.95 67.15 36.78 67.15 41.48C67.15 46.18 70.98 50.01 75.68 50.01C80.38 50.01 84.21 46.18 84.21 41.48C84.21 36.78 80.38 32.95 75.68 32.95ZM82.4 41.48C82.4 42.85 81.99 44.13 81.28 45.19L76.31 41.13V34.8C79.72 35.11 82.4 37.98 82.4 41.48ZM68.96 41.48C68.96 38.17 71.36 35.42 74.52 34.87V41.56C74.52 41.83 74.64 42.08 74.85 42.26L80.08 46.55C78.9 47.57 77.37 48.2 75.68 48.2C71.97 48.2 68.96 45.18 68.96 41.48Z" fill="#9F9EA5"/>
<path d="M68.19 85.27V83.27H72.19V85.27H68.19Z" fill="#9F9EA5"/>
<path d="M34.02 36.7C29.32 36.7 25.5 32.84 25.5 28.08C25.5 23.33 29.32 19.46 34.02 19.46C38.72 19.46 42.54 23.32 42.54 28.08C42.54 32.83 38.72 36.7 34.02 36.7ZM34.02 21.12C30.26 21.12 27.2 24.24 27.2 28.08C27.2 31.92 30.26 35.04 34.02 35.04C37.77 35.04 40.81 31.92 40.81 28.08C40.82 26.18 40.05 24.34 38.69 23.03C37.43 21.8 35.77 21.12 34.02 21.12Z" fill="#9F9EA5"/>
<path d="M35.52 15L37.52 17H90.52V54H45.52L43.52 56H92.52V15H35.52Z" fill="#9F9EA5"/>
<path d="M74.31 85.27V83.27H78.31V85.27H74.31Z" fill="#9F9EA5"/>
<path d="M41.17 83.27V46.84L41.57 46.76C50.53 44.97 56.68 39.41 59.45 34.79C60.52 33.01 60.09 30.71 58.45 29.45C57.73 28.89 56.83 28.58 55.91 28.58C54.83 28.58 53.82 29 53.08 29.75C47.24 35.61 41.32 37.95 40.2 38.36L40.12 38.39H27.92L27.84 38.36C26.71 37.95 20.8 35.61 14.96 29.75C14.21 29 13.21 28.58 12.13 28.58C11.22 28.58 10.32 28.89 9.59 29.45C7.96 30.7 7.53 33 8.59 34.79C11.37 39.41 17.53 44.98 26.47 46.76L26.87 46.84V83.27H15.82V85.27H65.64V83.27H41.17ZM27.91 45.18C18.99 43.76 12.87 38.4 10.12 33.85C9.53 32.86 9.77 31.58 10.69 30.85C11.09 30.54 11.59 30.36 12.1 30.36C12.7 30.36 13.26 30.59 13.69 31.01C20.01 37.32 26.29 39.7 27.52 40.13C27.59 40.16 27.67 40.17 27.78 40.17H40.29C40.39 40.17 40.48 40.16 40.58 40.12C40.65 40.1 47.54 37.86 54.38 31.01C54.79 30.6 55.34 30.38 55.94 30.38C56.46 30.38 56.96 30.55 57.37 30.87C58.28 31.58 58.52 32.87 57.92 33.86C55.2 38.4 49.1 43.77 40.14 45.19C39.7 45.26 39.38 45.63 39.38 46.07V83.26H28.68V46.06C28.68 45.62 28.35 45.24 27.91 45.18Z" fill="#9F9EA5"/>
<path d="M35.01 83.5H33.01V66.06H35.01V83.5Z" fill="#9F9EA5"/>
<path d="M48.47 51.01V49.01H61.96V51.01H48.47Z" fill="#9F9EA5"/>
<path d="M65.45 23.98V21.98H78.94V23.98H65.45Z" fill="#9F9EA5"/>
<path d="M65.45 29.12V27.12H82.4V29.12H65.45Z" fill="#9F9EA5"/>
</svg>
