/* XPM */
static char *bf1e3c6a493042619c9c8757e3ec7360[] = {
/* columns rows colors chars-per-pixel */
"64 64 186 2 ",
"   c #FBAF04",
".  c #FBAF05",
"X  c #FBB006",
"o  c #FBB008",
"O  c #FBB109",
"+  c #FBB20C",
"@  c #FBB20D",
"#  c #FBB20E",
"$  c #FBB20F",
"%  c #FBB30F",
"&  c #FBB310",
"*  c #FBB311",
"=  c #FBB312",
"-  c #FBB412",
";  c #FBB413",
":  c #FBB414",
">  c #FBB415",
",  c #FBB515",
"<  c #FBB516",
"1  c #FBB517",
"2  c #FBB518",
"3  c #FBB618",
"4  c #FBB619",
"5  c #FBB61A",
"6  c #FBB61B",
"7  c #FBB71B",
"8  c #FBB71C",
"9  c #FBB71D",
"0  c #FBB71E",
"q  c #FCB71C",
"w  c #FCB71D",
"e  c #FCB71E",
"r  c #FBB81F",
"t  c #FCB81E",
"y  c #FCB81F",
"u  c #FBB820",
"i  c #FBB821",
"p  c #FBB822",
"a  c #FBB922",
"s  c #FBB923",
"d  c #FCB820",
"f  c #FCB821",
"g  c #FCB822",
"h  c #FCB922",
"j  c #FCB923",
"k  c #FBB924",
"l  c #FBB925",
"z  c #FBBA25",
"x  c #FBBA26",
"c  c #FCB924",
"v  c #FCBA26",
"b  c #FCBA27",
"n  c #FBBA28",
"m  c #FBBB29",
"M  c #FBBB2B",
"N  c #FCBB28",
"B  c #FCBB29",
"V  c #FCBB2B",
"C  c #FCBC2D",
"Z  c #FCBC2E",
"A  c #FCBD30",
"S  c #FCBE32",
"D  c #FCBE34",
"F  c #FCBF37",
"G  c #FCC03B",
"H  c #FCC13C",
"J  c #FCC13D",
"K  c #FCC23F",
"L  c #FCC241",
"P  c #FCC344",
"I  c #FCC446",
"U  c #FCC447",
"Y  c #FCC548",
"T  c #FCC549",
"R  c #FCC54A",
"E  c #FCC54B",
"W  c #FCC64B",
"Q  c #FCC64D",
"!  c #FCC74F",
"~  c #FCC852",
"^  c #FCC853",
"/  c #FCCA58",
"(  c #FCCB5C",
")  c #FCCB5D",
"_  c #FCCC60",
"`  c #FCCC61",
"'  c #FCCD61",
"]  c #FCCD62",
"[  c #FCCE65",
"{  c #FCCE66",
"}  c #FCCE67",
"|  c #FCCF69",
" . c #FCCF6A",
".. c #FCD170",
"X. c #FCD273",
"o. c #FCD375",
"O. c #FCD376",
"+. c #FDD57D",
"@. c #FDD67E",
"#. c #FDD680",
"$. c #FDD884",
"%. c #FDD885",
"&. c #FDD887",
"*. c #FDD988",
"=. c #FDD989",
"-. c #FDD98A",
";. c #FDDC91",
":. c #FDDD95",
">. c #FDDE99",
",. c #FDDE9A",
"<. c #FDDF9A",
"1. c #FDDF9B",
"2. c #FDDF9C",
"3. c #FDE09D",
"4. c #FDE09F",
"5. c #FDE1A0",
"6. c #FDE2A4",
"7. c #FDE2A6",
"8. c #FDE3A7",
"9. c #FDE4AB",
"0. c #FDE4AC",
"q. c #FDE5AD",
"w. c #FDE5AE",
"e. c #FDE5AF",
"r. c #FDE6B0",
"t. c #FDE6B1",
"y. c #FDE6B2",
"u. c #FDE6B3",
"i. c #FDE7B4",
"p. c #FDE7B5",
"a. c #FDE7B6",
"s. c #FDE8B7",
"d. c #FDE8B8",
"f. c #FDEABF",
"g. c #FDEBC2",
"h. c #FEEBC2",
"j. c #FDECC5",
"k. c #FEECC4",
"l. c #FEECC5",
"z. c #FEEDC7",
"x. c #FEEDC8",
"c. c #FEEECB",
"v. c #FEEECC",
"b. c #FEF0D0",
"n. c #FEF0D1",
"m. c #FEF1D4",
"M. c #FEF1D5",
"N. c #FEF2D7",
"B. c #FEF2D8",
"V. c #FEF3D9",
"C. c #FEF3DA",
"Z. c #FEF3DB",
"A. c #FEF4DD",
"S. c #FEF4DE",
"D. c #FEF5DF",
"F. c #FEF6E3",
"G. c #FEF6E4",
"H. c #FEF6E5",
"J. c #FEF7E6",
"K. c #FEF7E7",
"L. c #FEF7E8",
"P. c #FEF8E9",
"I. c #FEF8EA",
"U. c #FEF8EB",
"Y. c #FEF9EC",
"T. c #FEF9ED",
"R. c #FEFAF1",
"E. c #FEFBF2",
"W. c #FEFBF5",
"Q. c #FEFCF6",
"!. c #FEFCF7",
"~. c #FEFCF8",
"^. c #FEFDF8",
"/. c #FEFDF9",
"(. c #FEFDFA",
"). c #FEFDFB",
"_. c #FEFEFB",
"`. c #FEFEFC",
"'. c #FEFEFD",
"]. c #FEFEFE",
"[. c #FFFEFE",
"{. c #FFFFFE",
"}. c #FEFEFF",
"|. c #FEFFFF",
" X c gray100",
".X c None",
/* pixels */
".X.X.X.Xy y y y y y y y y y y y y y y y y y y y y y y y y y y y .X.X.X.X.X.X.X.X.X.X.X.X.X.X.X.X.X.X.X.X.X.X.X.X.X.X.X.X.X.X.X.X",
".X.X.X.Xy y y y y y y y y y y y y y y y y y y y y y y y y y y y y y y y y .X.X.X.X.X.X.X.X.X.X.X.X.X.X.X.X.X.X.X.X.X.X.X.X.X.X.X",
".X.X.X.Xy y y y y y y y y y y y y y y y y y y y y y y y y y y y y y y y y y y y .X.X.X.X.X.X.X.X.X.X.X.X.X.X.X.X.X.X.X.X.X.X.X.X",
".X.X.X.Xy y y y y y y y y y y y y y y y y y y y y y y y y y y y y y y y y y y y y y .X.X.X.X.X.X.X.X.X.X.X.X.X.X.X.X.X.X.X.X.X.X",
".X.X.X.Xy y y y y y y y y y y y y y y y y y y y y y y y y y y y y y y y y y y y y y y y .X.X.X.X.X.X.X.X.X.X.X.X.X.X.X.X.X.X.X.X",
".X.X.X.Xy y y y y y y y y y y y y y y y y y y y y y y y y y y y y y y y y y y y y y y y y y .X.X.X.X.X.X.X.X.X.X.X.X.X.X.X.X.X.X",
".X.X.X.Xy y y y y y y y y y y y y y y y y y y y y y y y y y y y y y y y y y y y y y y y y y y y .X.X.X.X.X.X.X.X.X.X.X.X.X.X.X.X",
".X.X.X.Xy y y y y y y y y y y y y y y y y y y y y y y y y y y y y y y y y y y y y y y y y y y y y .X.X.X.X.X.X.X.X.X.X.X.X.X.X.X",
".X.X.X.Xy y y y y y y y y y y y y y y y y y y y y y y y y y y y y y y y y y y y y y y y y y y y y y .X.X.X.X.X.X.X.X.X.X.X.X.X.X",
".X.X.X.Xy y y y y y y y y y y y y y y y y y y y y y y d y y y d y y y y y y y y y y y y y y y y y y y .X.X.X.X.X.X.X.X.X.X.X.X.X",
".X.X.X.Xy y y y y y y y y y y e y y y e y y y y y 0 f d y e e e y y y y y y y y y y y y y y y y y y y y .X.X.X.X.X.X.X.X.X.X.X.X",
".X.X.X.Xy y y y y y y y y y y 0 d y y 0 y y y y 0 d , # y d 0 e y y y y y y y y y y y y y y y y y y y y y .X.X.X.X.X.X.X.X.X.X.X",
".X.X.X.Xy y y y y y y y y e 0 y , 3 3 f 0 y r 0 d ; ( &.3 0 i 0 y y y y y y y y y y d y y y y y y y y y y y .X.X.X.X.X.X.X.X.X.X",
".X.X.X.Xy y y y y y y y y y d , ..B.P ; d 0 0 i # { (. Xr., 0 f 0 y y y y y d e y y d d y y y y y y y y y y .X.X.X.X.X.X.X.X.X.X",
".X.X.X.Xy y y y y y y e r d d i B. XP.L , d i # [  X X(. Xr.> 0 d 0 e y d e f f d e f d y 0 y y y y y y y y y .X.X.X.X.X.X.X.X.X",
".X.X.X.Xy y y y y y e 0 y ; ; 3 ) Q. XK.J , ; [ (. X(. X(. Xr.3 e y y 0 ; ; ; # ; ; ; # 3 d 0 y y y y y y y y .X.X.X.X.X.X.X.X.X",
".X.X.X.Xy y y y y y y f , o.+.; # ` (. XH.S ]  X X). X). X). X0., r r i ;.d.e.u.i.r.i.q.H 3 d y y y y y y y y y .X.X.X.X.X.X.X.X",
".X.X.X.Xy y y y y y d , ~  X X$.; ; ]  X XH.R. X). X X X X).). Xw.r , I ). X). X X X(. X&.% j y y y y y y y y y .X.X.X.X.X.X.X.X",
".X.X.X.Xy y y y y y y 0 V v. X X+.; ; ` /. X(. X X X X X X X X). XQ # Q ).).).).(. XQ. X-.% j d y y y y y y y y y .X.X.X.X.X.X.X",
".X.X.X.Xy y y y y y 0 d , x b. X X+.. ` ). X X X). X X X X).). X9.r 3 U ). X). X X X(. X-.# d y y y y y y y y y y .X.X.X.X.X.X.X",
".X.X.X.Xy y y y y y y 0 d 3 m M. X/.8.W. X). X X X X X X X/. Xw., 0 , U  X X). X X X). X-.# d d y y y y y y y y y y .X.X.X.X.X.X",
".X.X.X.Xy y y y y y y y i d , Z b. X).).). X X X X X X X~. Xw.3 i x , U  X X). X X X). X-.# d d y y y y y y y y y y .X.X.X.X.X.X",
".X.X.X.Xy y y y y y y y f 0 x . O. X/.). X X X X X X X/. Xe.3 3 ; 3 , U  X(. X X X X). X-.% d y y y y y y y y y y y .X.X.X.X.X.X",
".X.X.X.Xy y y y y y y e 0 f # } ). X). X X X X X X X~. Xe.3 # U z.) # Q  X X X X X(.). X-.; d y y y y y y y y y y y .X.X.X.X.X.X",
".X.X.X.Xy y y y y y y y f > {  X X). X X X X X X(.(. Xw.3 ; U K. Xi.o U  X X X X X X(. X-.# c d y y y y y y y y y y y .X.X.X.X.X",
".X.X.X.Xy y y y y y y y f , j. X). X X X X X X X(. Xw.3 ; U T. X Xs.O Q  X X). X X(.(. X-.# d d y y y y y y y y y y y .X.X.X.X.X",
".X.X.X.Xy y y y y y y y f , z. X/. X X X X X X/. X0.3 ; U T. X/. Xd.O Q ). X). X X X(. X-.# d d y y y y y y y y y y y .X.X.X.X.X",
".X.X.X.Xy y y y y y y y f , x. X). X X X X X). Xw.3 ; U T. X).). Xd.O U ). X). X X X X X-.# d d y y y y y y y y y y y .X.X.X.X.X",
".X.X.X.Xy y y y y y y y d , x. X). X X X X/. Xw.3 ; U T. X X X/. Xd.O Q ). X). X X X(. X-.# d d y y y y y y y y y y y .X.X.X.X.X",
".X.X.X.Xy y y y y y y y f 3 x. X). X X X). XL.i ; U U. X/. X X). Xd.O U ). X). X X(.(. X-.% c d y y y y y y y y y y y .X.X.X.X.X",
".X.X.X.Xy y y y y y y y f , x. X). X X X). XZ.r i B. X). X X X). Xs.O Q ). X). X X X(. X-.# d d y y y y y y y y y y y .X.X.X.X.X",
".X.X.X.Xy y y y y y y y e 3 x. X). X X X). XA.0 m I. X X X X X~. Xu.O Q ). X). X X X X X-.# d y y y y y y y y y y y y .X.X.X.X.X",
".X.X.X.Xy y y y y y y y f 3 x. X). X X X X XS.3 x I. X). X X X X).^ 3 3 5. X X X X X(. X-.# d d d y y y y y y y y y y .X.X.X.X.X",
".X.X.X.Xy y y y y y y y f , x. X). X X X). XB.0 x I. X X X X). Xg.; x , L  X X). X X(. X-.# d y d d y y y y y y y y y .X.X.X.X.X",
".X.X.X.Xy y y y y y e d e 3 x. X). X X X). XF.0 m U. X). X X). XF.i ; . }  X/.). X X). X-.# i y y y y y y y y y y y y .X.X.X.X.X",
".X.X.X.Xy y y y y y e f f > x. X). X X X). X0.2 3 0. X X). X X). Xf./ O.T. X). X X(.). X-.# d y y y y y y y y y y y y .X.X.X.X.X",
".X.X.X.Xy y y y y y y y f , x. X). X X). XW.S 3 0 C R. X X X). X).). X X).). X X X X). X-.# d y y y y y y y y y y y y .X.X.X.X.X",
".X.X.X.Xy y y y y y y y f 3 x. X). X X). XR.m 3 3 x U. X). X X X X).).).). X X X X X). X&.; d y y y y y y y y y y y y .X.X.X.X.X",
".X.X.X.Xy y y y y y y y f , x. X). X X X X X6.i i <. X X X X X X X X). X X X X X X(. XB.x y d y y y y y y y y y y y y .X.X.X.X.X",
".X.X.X.Xy y y y y y y y f , x. X). X X X X X XI.I. X X X). X X X X X X X X X X X X X XP.~ # i 0 y y y y y y y y y y y .X.X.X.X.X",
".X.X.X.Xy y y y y y y y d , x. X). X X X X X/. X X). X X X X X X X X X X X X X X XB.H. XQ.[ # i r y y y y y y y y y .X.X.X.X.X.X",
".X.X.X.Xy y y y y y y y f 3 x. X). X X X X X X).). X X X X X X X X X X X X X(. Xx.l U I. X XO., d y y y y y y y y y .X.X.X.X.X.X",
".X.X.X.Xy y y y y y y y f , x. X). X X X X X X X X X X X X X X X X X X X X(.(. X,.# ; F S. X X! , d y y y y y y y y .X.X.X.X.X.X",
".X.X.X.Xy y y y y y y y f , x. X). X X X X X X X X X X X X X X X X X X X X XW. X X8.0 > S M.z.m 0 y y y y y y y y y .X.X.X.X.X.X",
".X.X.X.Xy y y y y y y y i , x. X/./././././.).).(. X).).(.(.(.(././.)./. Xn.F i. X Xi.0 > i i 3 y e y y y y y y y .X.X.X.X.X.X.X",
".X.X.X.Xy y y y y y y y i , g. X). X X X X X X X X X X X X X X X X X). XM.M ; 3 9. X Xg.x 0 y d 0 y y y y y y y y .X.X.X.X.X.X.X",
".X.X.X.Xy y y y y y y y i , ! 5.,.3.,.3.3.,.,.3.<.<.<.<.<.<.3.<.,.,.,.:.M , x 0 ; ,. XI.C 3 d e y y y y y y y y .X.X.X.X.X.X.X.X",
".X.X.X.Xy y y y y y y r 0 i , # # # # # # # # # # # # ; # # % % # ; # # 0 i 0 0 0 ; X.U , 0 f e y y y y y y y y .X.X.X.X.X.X.X.X",
".X.X.X.Xy y y y y y y y y 0 d d d d z d j j j j j j j y j j j y c d d d d 0 y e y d ; , d 0 y y y y y y y y y .X.X.X.X.X.X.X.X.X",
".X.X.X.Xy y y y y y y y y y d d y y d y y y y y y y y y y y y y d d d y y y y y e d d d 0 y y y y y y y y y y .X.X.X.X.X.X.X.X.X",
".X.X.X.Xy y y y y y y y y y y y y y y y y y y y y y y y y y y y d y y y y y y y y y y y y y y y y y y y y y .X.X.X.X.X.X.X.X.X.X",
".X.X.X.Xy y y y y y y y y y y y y y y y y y y y y y y y y y y y y y y y y y y y y y y y y y y y y y y y y .X.X.X.X.X.X.X.X.X.X.X",
".X.X.X.Xy y y y y y y y y y y y y y y y y y y y y y y y y y y y y y y y y y y y y y y y y y y y y y y y y .X.X.X.X.X.X.X.X.X.X.X",
".X.X.X.Xy y y y y y y y y y y y y y y y y y y y y y y y y y y y y y y y y y y y y y y y y y y y y y y y .X.X.X.X.X.X.X.X.X.X.X.X",
".X.X.X.Xy y y y y y y y y y y y y y y y y y y y y y y y y y y y y y y y y y y y y y y y y y y y y y y .X.X.X.X.X.X.X.X.X.X.X.X.X",
".X.X.X.Xy y y y y y y y y y y y y y y y y y y y y y y y y y y y y y y y y y y y y y y y y y y y y y .X.X.X.X.X.X.X.X.X.X.X.X.X.X",
".X.X.X.Xy y y y y y y y y y y y y y y y y y y y y y y y y y y y y y y y y y y y y y y y y y y y y .X.X.X.X.X.X.X.X.X.X.X.X.X.X.X",
".X.X.X.Xy y y y y y y y y y y y y y y y y y y y y y y y y y y y y y y y y y y y y y y y y y y .X.X.X.X.X.X.X.X.X.X.X.X.X.X.X.X.X",
".X.X.X.Xy y y y y y y y y y y y y y y y y y y y y y y y y y y y y y y y y y y y y y y y y y .X.X.X.X.X.X.X.X.X.X.X.X.X.X.X.X.X.X",
".X.X.X.Xy y y y y y y y y y y y y y y y y y y y y y y y y y y y y y y y y y y y y y y y .X.X.X.X.X.X.X.X.X.X.X.X.X.X.X.X.X.X.X.X",
".X.X.X.Xy y y y y y y y y y y y y y y y y y y y y y y y y y y y y y y y y y y y y y .X.X.X.X.X.X.X.X.X.X.X.X.X.X.X.X.X.X.X.X.X.X",
".X.X.X.Xy y y y y y y y y y y y y y y y y y y y y y y y y y y y y y y y y y y y .X.X.X.X.X.X.X.X.X.X.X.X.X.X.X.X.X.X.X.X.X.X.X.X",
".X.X.X.Xy y y y y y y y y y y y y y y y y y y y y y y y y y y y y y y y .X.X.X.X.X.X.X.X.X.X.X.X.X.X.X.X.X.X.X.X.X.X.X.X.X.X.X.X",
".X.X.X.Xy y y y y y y y y y y y y y y y y y y y y y y y y y y y .X.X.X.X.X.X.X.X.X.X.X.X.X.X.X.X.X.X.X.X.X.X.X.X.X.X.X.X.X.X.X.X"
};
