/* XPM */
static char *d4d5d04abaa74e8eabde714f0a56851e[] = {
/* columns rows colors chars-per-pixel */
"32 32 129 2 ",
"   c #FBAD00",
".  c #FBAF04",
"X  c #FBB007",
"o  c #FBB10A",
"O  c #FBB20D",
"+  c #FBB20E",
"@  c #FBB310",
"#  c #FBB311",
"$  c #FBB312",
"%  c #FBB412",
"&  c #FBB413",
"*  c #FBB515",
"=  c #FBB516",
"-  c #FBB517",
";  c #FBB518",
":  c #FBB618",
">  c #FBB619",
",  c #FBB61A",
"<  c #FBB61B",
"1  c #FBB71B",
"2  c #FBB71C",
"3  c #FBB71D",
"4  c #FBB71E",
"5  c #FBB71F",
"6  c #FCB71E",
"7  c #FBB81F",
"8  c #FCB81E",
"9  c #FCB81F",
"0  c #FBB820",
"q  c #FBB821",
"w  c #FCB820",
"e  c #FCB821",
"r  c #FCB922",
"t  c #FCB923",
"y  c #FCBA25",
"u  c #FCBA26",
"i  c #FCBA27",
"p  c #FCBA28",
"a  c #FCBC2C",
"s  c #FCBC2D",
"d  c #FCBD30",
"f  c #FCBF35",
"g  c #FCBF37",
"h  c #FCBF38",
"j  c #FCC038",
"k  c #FCC039",
"l  c #FCC03A",
"z  c #FCC13B",
"x  c #FCC342",
"c  c #FCC344",
"v  c #FCC549",
"b  c #FCC64B",
"n  c #FCC750",
"m  c #FCC852",
"M  c #FCC853",
"N  c #FCC956",
"B  c #FCC957",
"V  c #FCCB5B",
"C  c #FCCB5C",
"Z  c #FCCB5D",
"A  c #FCCB5E",
"S  c #FCCC5E",
"D  c #FCCD61",
"F  c #FCCE66",
"G  c #FCCE67",
"H  c #FCCF69",
"J  c #FCD06C",
"K  c #FDD272",
"L  c #FCD273",
"P  c #FDD57B",
"I  c #FDD67D",
"U  c #FDD884",
"Y  c #FDD987",
"T  c #FDD988",
"R  c #FDDB8E",
"E  c #FDDC93",
"W  c #FDDD95",
"Q  c #FDDE98",
"!  c #FDDE99",
"~  c #FDDF9A",
"^  c #FDDF9C",
"/  c #FDE1A3",
"(  c #FDE2A6",
")  c #FDE3A8",
"_  c #FDE4AC",
"`  c #FDE5AD",
"'  c #FDE5AF",
"]  c #FDE6B0",
"[  c #FDE8B7",
"{  c #FDE8B8",
"}  c #FEEBC1",
"|  c #FEEBC2",
" . c #FEECC3",
".. c #FEECC5",
"X. c #FEEDC7",
"o. c #FEEECA",
"O. c #FEEECB",
"+. c #FEEFCF",
"@. c #FEF0D0",
"#. c #FEF0D1",
"$. c #FEF1D3",
"%. c #FEF1D6",
"&. c #FEF2D7",
"*. c #FEF3D9",
"=. c #FEF3DB",
"-. c #FEF4DC",
";. c #FEF4DD",
":. c #FEF4DE",
">. c #FEF5E0",
",. c #FEF6E4",
"<. c #FEF7E6",
"1. c #FEF8EB",
"2. c #FEF9EC",
"3. c #FEF9EF",
"4. c #FEFAF1",
"5. c #FEFBF3",
"6. c #FEFCF5",
"7. c #FEFCF7",
"8. c #FEFDF8",
"9. c #FEFDF9",
"0. c #FEFDFA",
"q. c #FEFDFB",
"w. c #FEFEFC",
"e. c #FEFEFD",
"r. c #FEFEFE",
"t. c #FFFEFE",
"y. c #FFFFFE",
"u. c gray100",
"i. c None",
/* pixels */
"i.i.9 9 9 9 9 9 9 9 9 9 9 9 9 9 9 9 i.i.i.i.i.i.i.i.i.i.i.i.i.i.",
"i.i.9 9 9 9 9 9 9 9 9 9 9 9 9 9 9 9 9 9 9 i.i.i.i.i.i.i.i.i.i.i.",
"i.i.9 9 9 9 9 9 9 9 9 9 9 9 9 9 9 9 9 9 9 9 9 i.i.i.i.i.i.i.i.i.",
"i.i.9 9 9 9 9 9 9 9 9 9 9 9 9 9 9 9 9 9 9 9 9 9 i.i.i.i.i.i.i.i.",
"i.i.9 9 9 9 9 6 w 9 6 4 0 0 0 4 9 9 9 9 9 9 9 9 9 i.i.i.i.i.i.i.",
"i.i.9 9 9 6 9 9 $ 4 w w 4 $ : 0 4 9 9 9 9 9 9 9 9 9 i.i.i.i.i.i.",
"i.i.9 9 9 9 w w G p 4 : a { v + w 9 w 9 9 w w 4 9 9 9 i.i.i.i.i.",
"i.i.9 9 4 w = + @.#.= p @.u.2.c & 9 : 4 : : 7 9 4 9 9 9 i.i.i.i.",
"i.i.9 9 w $ T R & >.} X.u.0.u.2.v y o.%.@.%.c = w 9 9 9 i.i.i.i.",
"i.i.9 9 w = V u.I k u.u.0.u.8.u.U a u.u.u.u.N & w 9 9 9 9 i.i.i.",
"i.i.9 9 7 w + m 3.,.u.0.u.0.u.^ . l 8.u.0.u.N & w w w 9 9 i.i.i.",
"i.i.9 9 w w : u &.u.u.u.0.u.! 4 n g 0.u.0.u.N & w w 9 9 9 i.i.i.",
"i.i.9 9 9 9 :  .u.0.u.9.u.! $ @.%.g 0.u.u.u.N & w 9 9 9 9 i.i.i.",
"i.i.9 9 9 6 7 :.u.u.u.u.! $ } u.O.h 0.u.0.u.N & w 9 9 9 9 9 i.i.",
"i.i.9 9 9 6 0 :.u.0.u.` = X.u.u.O.g 8.u.0.u.N $ w w 9 9 9 9 i.i.",
"i.i.9 9 9 6 0 :.u.0.u.G L u.6.u.@.g 0.u.u.u.N = w w 9 9 9 9 i.i.",
"i.i.9 9 9 6 0 :.u.0.u.L P u.6.u.T . [ u.0.u.N $ 0 7 9 9 9 9 i.i.",
"i.i.9 9 9 6 0 :.u.0.u.G J u.6.u.` l O.u.0.u.N = 0 7 9 9 9 9 i.i.",
"i.i.9 9 9 6 0 :.u.u.4.5 4 4.u.u.e.e.u.u.0.u.m = w w w 9 9 9 i.i.",
"i.i.9 9 9 6 7 :.u.u.u._ ( u.u.u.e.e.e.e.u.4.d $ w 5 9 9 9 i.i.i.",
"i.i.9 9 9 6 7 :.u.u.u.0.u.u.u.u.u.e.e.u./ | ,.l : w 9 9 9 i.i.i.",
"i.i.9 9 9 4 0 :.u.0.0.0.8.u.0.0.e.e.9.u.W . o.W $ w 9 9 9 i.i.i.",
"i.i.9 9 7 4 7 -.u.u.u.u.u.u.u.u.e.u._ v 9.] = 5 6 9 9 9 9 i.i.i.",
"i.i.9 9 7 7 4 v S A S A S S A A A A 5 o c ` y 4 9 6 9 9 i.i.i.i.",
"i.i.9 9 6 6 9 = $ & $ $ $ $ $ $ $ & 9 w : + 4 9 6 9 9 9 i.i.i.i.",
"i.i.9 9 9 9 6 w w w w w w w w w w w w 4 w w 9 6 9 9 9 i.i.i.i.i.",
"i.i.9 9 9 9 9 9 9 9 9 9 w w 9 9 w 9 9 9 9 9 9 9 9 9 i.i.i.i.i.i.",
"i.i.9 9 9 9 9 9 9 9 9 9 w w 9 9 9 9 9 9 9 9 9 9 9 i.i.i.i.i.i.i.",
"i.i.9 9 9 9 9 9 9 9 9 9 9 9 9 9 9 9 9 9 9 9 9 9 i.i.i.i.i.i.i.i.",
"i.i.9 9 9 9 9 9 9 9 9 9 9 9 9 9 9 9 9 9 9 9 9 i.i.i.i.i.i.i.i.i.",
"i.i.9 9 9 9 9 9 9 9 9 9 9 9 9 9 9 9 9 9 i.i.i.i.i.i.i.i.i.i.i.i.",
"i.i.9 9 9 9 9 9 9 9 9 9 9 9 9 9 9 i.i.i.i.i.i.i.i.i.i.i.i.i.i.i."
};
