/* XPM */
static char *b8a4410cdcee4bf4f5c09d7616289dbe[] = {
/* columns rows colors chars-per-pixel */
"16 16 79 1 ",
"  c #FBB30F",
". c #FBB310",
"X c #FBB311",
"o c #FBB412",
"O c #FBB413",
"+ c #FBB415",
"@ c #FBB515",
"# c #FBB516",
"$ c #FBB517",
"% c #FBB518",
"& c #FBB619",
"* c #FBB61A",
"= c #FBB71C",
"- c #FBB71D",
"; c #FBB71E",
": c #FCB71E",
"> c #FCB81F",
", c #FCB820",
"< c #FCB821",
"1 c #FCB922",
"2 c #FCB923",
"3 c #FCB925",
"4 c #FCBA25",
"5 c #FCBA27",
"6 c #FCBD31",
"7 c #FCC039",
"8 c #FCC13B",
"9 c #FCC13E",
"0 c #FCC23F",
"q c #FCC240",
"w c #FCC341",
"e c #FCC342",
"r c #FCC751",
"t c #FCCB5B",
"y c #FCCB5D",
"u c #FCD16F",
"i c #FDD170",
"p c #FDD375",
"a c #FDD479",
"s c #FDD67E",
"d c #FDD67F",
"f c #FDD680",
"g c #FDD781",
"h c #FDD782",
"j c #FDD783",
"k c #FDD987",
"l c #FDDA8D",
"z c #FDDB8D",
"x c #FDDC93",
"c c #FDDD94",
"v c #FDDF9A",
"b c #FDE1A1",
"n c #FDE2A4",
"m c #FDE2A5",
"M c #FDE3A8",
"N c #FDE4AA",
"B c #FDE4AB",
"V c #FDE4AC",
"C c #FDE5AD",
"Z c #FDE5AE",
"A c #FEE8B7",
"S c #FEE9BC",
"D c #FEF0D2",
"F c #FEF1D5",
"G c #FEF4DE",
"H c #FEF5E2",
"J c #FEF6E2",
"K c #FEF6E3",
"L c #FEF6E5",
"P c #FEFBF3",
"I c #FEFCF6",
"U c #FEFDF9",
"Y c #FEFDFB",
"T c #FEFEFC",
"R c #FEFEFD",
"E c #FEFEFE",
"W c #FFFEFE",
"Q c gray100",
"! c None",
/* pixels */
"!>>>,:>>:>!!!!!!",
"!>>>,,,,>>>>!!!!",
"!>;>#*##>:;,>!!!",
"!>;4a4ZiO4,;>>!!",
"!,*gcGRIrDL7*,!!",
"!,$wHRRxwPRw$>>!",
"!4XpRRzMvLRw$,>!",
"!, gRSzRkHR0$,>!",
"!4 gRbZRuFR0#,>!",
"!, dRbMRIRY7*>:!",
"!, gRRRRRRNg*,!!",
"!,#tANZZZyg6:>!!",
"!,,*oo o o;;;>!!",
"!,;,,,,,,,>:>!!!",
"!>:>>>>>,>>>!!!!",
"!>>>>>>>>>!!!!!!"
};
